<svg xmlns="http://www.w3.org/2000/svg" xmlns:xlink="http://www.w3.org/1999/xlink" class="card" height="336" preserveAspectRatio="none" viewBox="-106 -164.5 212 329" width="216"><symbol id="SS2" viewBox="-600 -600 1200 1200" preserveAspectRatio="xMinYMid"><path d="M0-500c100 250 355 400 355 685a150 150 0 0 1-300 0 10 10 0 0 0-20 0c0 200 50 215 95 315h-260c45-100 95-115 95-315a10 10 0 0 0-20 0 150 150 0 0 1-300 0c0-285 255-435 355-685Z"/></symbol><symbol id="VS2" viewBox="-500 -500 1000 1000" preserveAspectRatio="xMinYMid"><path d="M-225-225c-20-40 25-235 225-235s225 135 225 235c0 200-450 385-450 685h450V300" stroke="#000" stroke-width="80" stroke-linecap="square" stroke-miterlimit="1.5" fill="none"/></symbol><rect width="211" height="328" x="-105.5" y="-164" rx="12" ry="12" fill="#fff" stroke="#000"/><use xlink:href="#VS2" height="50" x="-104" y="-152.5"/><use xlink:href="#SS2" height="41.827" x="-99.913" y="-97.5"/><use xlink:href="#SS2" height="40" x="-20" y="-117.501"/><g transform="rotate(180)"><use xlink:href="#VS2" height="50" x="-104" y="-152.5"/><use xlink:href="#SS2" height="41.827" x="-99.913" y="-97.5"/><use xlink:href="#SS2" height="40" x="-20" y="-117.501"/></g></svg>