<svg xmlns="http://www.w3.org/2000/svg" xmlns:xlink="http://www.w3.org/1999/xlink" class="card" height="336" preserveAspectRatio="none" viewBox="-106 -164.5 212 329" width="216"><symbol id="SS3" viewBox="-600 -600 1200 1200" preserveAspectRatio="xMinYMid"><path d="M0-500c100 250 355 400 355 685a150 150 0 0 1-300 0 10 10 0 0 0-20 0c0 200 50 215 95 315h-260c45-100 95-115 95-315a10 10 0 0 0-20 0 150 150 0 0 1-300 0c0-285 255-435 355-685Z"/></symbol><symbol id="VS3" viewBox="-500 -500 1000 1000" preserveAspectRatio="xMinYMid"><path d="M-250-320v-140h450L-110-80c10-10 60-40 110-40 200 0 250 120 250 270 0 200-80 310-280 310s-230-160-230-160" stroke="#000" stroke-width="80" stroke-linecap="square" stroke-miterlimit="1.5" fill="none"/></symbol><rect width="211" height="328" x="-105.5" y="-164" rx="12" ry="12" fill="#fff" stroke="#000"/><use xlink:href="#VS3" height="32" x="-100.4" y="-152.5"/><use xlink:href="#SS3" height="26.769" x="-97.784" y="-115.5"/><use xlink:href="#SS3" height="54" x="-27" y="-130.667"/><use xlink:href="#SS3" height="54" x="-27" y="-27"/><g transform="rotate(180)"><use xlink:href="#VS3" height="32" x="-100.4" y="-152.5"/><use xlink:href="#SS3" height="26.769" x="-97.784" y="-115.5"/><use xlink:href="#SS3" height="54" x="-27" y="-130.667"/></g></svg>