<svg xmlns="http://www.w3.org/2000/svg" xmlns:xlink="http://www.w3.org/1999/xlink" class="card" height="336" preserveAspectRatio="none" viewBox="-106 -164.5 212 329" width="216"><symbol id="SC4" viewBox="-600 -600 1200 1200" preserveAspectRatio="xMinYMid"><path d="M30 150c5 235 55 250 100 350h-260c45-100 95-115 100-350a10 10 0 0 0-20 0 210 210 0 1 1-74-201 10 10 0 0 0 14-14 230 230 0 1 1 220 0 10 10 0 0 0 14 14 210 210 0 1 1-74 201 10 10 0 0 0-20 0Z"/></symbol><symbol id="VC4" viewBox="-500 -500 1000 1000" preserveAspectRatio="xMinYMid"><path d="M50 460h200m-100 0v-920l-450 635v25h570" stroke="#000" stroke-width="80" stroke-linecap="square" stroke-miterlimit="1.5" fill="none"/></symbol><rect width="211" height="328" x="-105.5" y="-164" rx="12" ry="12" fill="#fff" stroke="#000"/><use xlink:href="#VC4" height="50" x="-104" y="-152.5"/><use xlink:href="#SC4" height="41.827" x="-99.913" y="-97.5"/><use xlink:href="#SC4" height="40" x="-59.001" y="-117.551"/><use xlink:href="#SC4" height="40" x="19.001" y="-117.551"/><g transform="rotate(180)"><use xlink:href="#VC4" height="50" x="-104" y="-152.5"/><use xlink:href="#SC4" height="41.827" x="-99.913" y="-97.5"/><use xlink:href="#SC4" height="40" x="-59.001" y="-117.551"/><use xlink:href="#SC4" height="40" x="19.001" y="-117.551"/></g></svg>