<svg xmlns="http://www.w3.org/2000/svg" xmlns:xlink="http://www.w3.org/1999/xlink" class="card" height="336" preserveAspectRatio="none" viewBox="-106 -164.5 212 329" width="216"><symbol id="SH4" viewBox="-600 -600 1200 1200" preserveAspectRatio="xMinYMid"><path d="M0-300c0-100 100-200 200-200s200 100 200 250C400 0 0 400 0 500 0 400-400 0-400-250c0-150 100-250 200-250S0-400 0-300Z" fill="red"/></symbol><symbol id="VH4" viewBox="-500 -500 1000 1000" preserveAspectRatio="xMinYMid"><path d="M50 460h200m-100 0v-920l-450 635v25h570" stroke="red" stroke-width="80" stroke-linecap="square" stroke-miterlimit="1.5" fill="none"/></symbol><rect width="211" height="328" x="-105.5" y="-164" rx="12" ry="12" fill="#fff" stroke="#000"/><use xlink:href="#VH4" height="32" x="-100.4" y="-152.5"/><use xlink:href="#SH4" height="26.769" x="-97.784" y="-115.5"/><use xlink:href="#SH4" height="54" x="-72.167" y="-130.667"/><use xlink:href="#SH4" height="54" x="18.167" y="-130.667"/><g transform="rotate(180)"><use xlink:href="#VH4" height="32" x="-100.4" y="-152.5"/><use xlink:href="#SH4" height="26.769" x="-97.784" y="-115.5"/><use xlink:href="#SH4" height="54" x="-72.167" y="-130.667"/><use xlink:href="#SH4" height="54" x="18.167" y="-130.667"/></g></svg>