<svg xmlns="http://www.w3.org/2000/svg" xmlns:xlink="http://www.w3.org/1999/xlink" class="card" height="336" preserveAspectRatio="none" viewBox="-106 -164.5 212 329" width="216"><symbol id="VSA" viewBox="-500 -500 1000 1000" preserveAspectRatio="xMinYMid"><path d="M-270 460h160m-90-10L0-460l200 910m-90 10h160m-390-330h240" stroke="#000" stroke-width="80" stroke-linecap="square" stroke-miterlimit="1.5" fill="none"/></symbol><symbol id="SSA" viewBox="-600 -600 1200 1200" preserveAspectRatio="xMinYMid"><path d="M0-500c100 250 355 400 355 685a150 150 0 0 1-300 0 10 10 0 0 0-20 0c0 200 50 215 95 315h-260c45-100 95-115 95-315a10 10 0 0 0-20 0 150 150 0 0 1-300 0c0-285 255-435 355-685Z"/></symbol><rect width="211" height="328" x="-105.5" y="-164" rx="12" ry="12" fill="#fff" stroke="#000"/><use xlink:href="#SSA" height="136.8" x="-68.4" y="-68.4" stroke="#000" stroke-width="100" stroke-dasharray="100,100" stroke-linecap="round"/><use xlink:href="#SSA" height="136.8" x="-68.4" y="-68.4" stroke="#fff" stroke-width="50"/><use xlink:href="#SSA" height="136.8" x="-68.4" y="-68.4"/><path fill="#fff" d="m0-30.011 7.004 7.004L0-16.003l-7.004-7.004M0-28.01l-5.003 5.003L0-18.004l5.003-5.003m3.001 1 5.003 5.003-3.001 3.002-1.001-1-2.001 2 1 1-2 2.002-1.001-1 2-2.002-1-1-2 2-1.001-1 2-2-1-1.001-2 2-1.001-1 2-2 1.001 1 1-1-1-1.001m4.002-2.002-1 1.001 2.001 2.001-1 1 1 1.001 2.001-2m3.002 1L21.012-9l-7.004 7.003-7.004-7.003m7.004-5.003L9.005-9l5.003 5.002 5.003-5.002M0-26.01l3.002 3.002L0-20.006l-3.002-3.001m17.01 11.006L17.009-9l-3.001 3.001-3.002-3.001m-19.01-13.008 2 2.001-1 1.001 2.001 2.001 1-1L-1-15.003l-1 1-1-1-1.001 1L-1.001-11 0-12 2.001-10l1-1 1.001 1-1 1 2 2.002-3 3.001 1 1 4.002-4.001 1 1-1 1 1 1.001 1.001-1 4.002 4.002-1 1-1-1-1.001 1 1 1.001-1 1-1.001-1-1 1 1 1.001-1 1-2.002-2-1 1-2.001-2 1-1.001 2.001 2 2.001-2-2-2.002L5.002-.995 3.002-2.996l-1 1-3.003-3.001-1 1L1-.995l-2.002 2.001 1.001 1 1-1 1.001 1-1 1.001-1.001-1-2.001 2-1-1-2.002 2.001 1 1 1.001-1 1 1 2.002-2 1 1 1.001-1 1 1 1.001-1 1 1 1.001-1 1 1-2 2.001-1-1-1.001 1 1 1.001-1 1L1 7.01 0 8.01l-1-1-2.002 2-6.003-6.003 1-1-1-1-1 1-1.001-1 1-1.001-1-1.001-1 1-1.001-1 2-2.001 1.001 1 2.002-2-1.001-1.001 2.001-2.001 1 1 1.001-1-1-1 1-1.001-2-2.002 1-1 1 1 1-1-3-3.002-1.001 1 1 1.001-1 1-1.001-1 1-1-3.001-3.002-1 1-1.001-1 3.001-3.002 2.002 2.002 1-1.001-2.001-2.001m4.002 4.002-1 1 1 1.001 1-1M2.002-10 0-7.999l1 1-1 1.001 1 1 2.002-2-1-1 1-1.001m5.002 5.002-1 1L9.005-.994l1-1m-18.01-16.01-1 1.001 2.001 2.001 1-1M-1-11.001-2-10l-1-1-2.002 2 1 1.001 1.001-1L-1-7l1.001-1-1-1L0-10m6.003 6.003-1 1 1 1.001 1-1M9.006-.995l-1 1 1 1.001 1-1M-3.001-4.997l-1 1 1 1 1-1m-12.006-12.006L-7.004-9l-7.004 7.003-7.004-7.003m7.004-5.003L-19.01-9l5.003 5.002 5.003-5.002m3.002 3.001-2.001 2.001 1 1-1 1.001 1 1.001 1-1 1.001 1-3.001 3.002 1 1L-4.002.006l2 2 1.001-1-1-1 1-1.001-1-1-1 1-2.002-2.001 1-1m-10.005-8.005L-11.006-9l-3.002 3.001-3.001-3.001m8.004 8.004-1 1 1 1.001 1-1M1.002 9.01l1 1L0 12.012l-2.001-2 1-1.001 1.001 1"/><text font-size="20" font-family="Bariol" text-anchor="middle" y="96.9">www.me.uk</text><text font-size="20" font-family="Bariol" text-anchor="middle" y="116.9">/cards/</text><use xlink:href="#VSA" height="32" x="-100.4" y="-152.5"/><use xlink:href="#SSA" height="26.769" x="-97.784" y="-115.5"/><g transform="rotate(180)"><use xlink:href="#VSA" height="32" x="-100.4" y="-152.5"/><use xlink:href="#SSA" height="26.769" x="-97.784" y="-115.5"/></g></svg>