<svg xmlns="http://www.w3.org/2000/svg" xmlns:xlink="http://www.w3.org/1999/xlink" class="card" height="336" preserveAspectRatio="none" viewBox="-106 -164.5 212 329" width="216"><defs><path id="XHJ" d="M-72.4-126.9H72.4v253.8H-72.4z"/></defs><symbol id="VHJ" viewBox="-500 -500 1000 1000" preserveAspectRatio="xMinYMid"><path d="M50-460h200m-100 0v710a100 100 0 0 1-400 0v-30" stroke="red" stroke-width="80" stroke-linecap="square" stroke-miterlimit="1.5" fill="none"/></symbol><symbol id="SHJ" viewBox="-600 -600 1200 1200" preserveAspectRatio="xMinYMid"><path d="M0-300c0-100 100-200 200-200s200 100 200 250C400 0 0 400 0 500 0 400-400 0-400-250c0-150 100-250 200-250S0-400 0-300Z" fill="red"/></symbol><symbol id="HJ1" preserveAspectRatio="none" viewBox="0 0 1300 2000"><path fill="#FC4" d="M0 27.174v74.783L60 175v479.352l45-31.2V332.344c47.547 13.885 57.732 59.91 59.799 112.822C207.183 366.332 172.25 341.869 155 305c22.435-6.794 44.101-15.652 60-40-19.522-21.34-39.812-27.132-60-35 45.6-69.7 20.41-97.002-2.076-126.053 4.262 33.894 6.383 68.408-47.381 116.953L105 280.75V155Zm616.344 92.865c-90.016.021-177.157 15.772-250.18 35.988C314.554 278.493 383.861 375.085 320 480c20-55-81.657-74.736-75 5 1.622 19.425 15.247 28.676 31.951 29.883-4.328-.204-8.267-.745-11.527-1.725l-45.067 31.086-.004-.006L0 696.207v30l235.473-162.394-14.711-19.047L497.5 902.5l.037 17.5H802.5v-17.5c28.548-117.155 72.473-223.814 144.93-319.041l-103.836-76.063c-18.965 21.007-35.782 42.994-50.819 65.793l2.102-3.189H410.283L360 505h-21.818c7.03-2.09 14.314-4.383 21.775-6.81 3.82-.613 7.658-1.203 11.504-1.786L360 505l11.695 15h459.649l12.2-12.578L820 490H412.902c34.86-5.908 68.524-14.106 95.883-32.45 7.353-4.929 12.789-12.426 20.594-17.134 11.293-6.812 22.21-13.53 28.297-25.416l-25.602 9.586 25.207-9.51c8.975-2.712 15.274-10.185 22.719-25.076 60.119-120.238-19.763-129.971 64.36-269.45a751.796 751.796 0 0 0-28.016-.51zm547.152 344.535c-23.907-.209-52.475 9.66-73.496 25.426-40 30-80 15-75-25-70 30-5 140 65 95 42.196-27.126 105-40 115-5 31.743-65.249 5.791-90.1-31.504-90.426zm-868.371 48.733-2.736 1.025c-2.77.294-5.484.487-8.118.582 3.569-.215 7.21-.758 10.854-1.607zm497.47 60.156c-65.17 98.935-96.87 213.154-125.156 328.959l-253.982-328.32L422.639 585H785Zm226.852 63.707c-52.412 65.676-90.819 136.71-119.543 212.92l21.532 23.418c27.582-79.521 64.959-153.577 116.837-221.973-5.411 26.806-8.273 54.748-8.273 83.465 0 136.64 64.808 255.724 160.738 318.285l-2.595-1.59c-45.753 115.83-115.544 225.868-185.647 304.262l13.85 17.496c72.416-75.9 146.448-187.78 195.84-307.033l-6.268-3.838c29.107 16.624 60.756 28.176 94.082 33.701v-18.47c-143.477-19.162-255-163.615-255-339.008 0-26.57 2.563-52.429 7.404-77.252l-14.015-10.17c.107-.141.211-.283.318-.424zm88.403 64.605 17.75 13.198a299.347 299.347 0 0 0-.668 20.027c0 122.962 75.11 225.59 175.068 249.656V953.92c-85.541-23.521-149.178-112.607-149.178-218.92 0-.681 0-1.361.01-2.041zm-20.276 13.243c-11.012-.227-20.789 7.228-14.314 26.105-44.412-8.721-25.537 58.643 7.295 29.1 7.514 43.327 68.569-5.007 20.601-20.63 18.918-19.53 1.509-34.265-13.582-34.575zm-254.97 86.537-29.987 105.49c48.755 35.02 80.42 91.607 80.42 155.455 0 37.016-10.642 71.592-29.088 100.94l67.256 87.81C964.193 1199.896 990 1134.156 990 1062.5c0-112.477-63.586-210.376-157.396-260.945Zm276.732 19.517c-12.986-.007-25.24 9.442-13.352 29.03-45.25.959-12.431 62.741 13.338 26.87 16.59 40.726 65.922-19.526 15.725-24.55 12.766-20.62-1.887-31.342-15.711-31.35zm59.832 95.608c-15.415.163-32.128 14.613-11.727 32.826-42.995 14.138 6.443 63.635 20.608 21.8 27.764 34.102 57.34-37.933 7.865-28.072 5.06-19.185-5.497-26.674-16.746-26.554zm92.318 75.375c-17.157-.391-37.538 22.873-8.574 35.959-36.78 26.376 25.225 58.778 26.197 14.62 8.782 5.793 15.838 5.75 20.891 2.679v-35.3c-5.022-2.238-12.218-1.771-21.805 3.481-.718-15.416-8.33-21.248-16.709-21.44z" transform="matrix(-1 0 0 1 1300 0)"/></symbol><symbol id="HJ2" preserveAspectRatio="none" viewBox="0 0 1300 2000"><path fill="red" d="m199.648 0 156.055 158.855C484.175 122.112 658.575 97.858 815 150L960.455 0H874.2l-72.256 88.408-2.959-.603c-35.207-7.185-69.718-11.909-103.334-14.809l-5.029-.433L697.581 0h-67.604l-.084 70.975-4.998-.006c-38.885-.036-76.4 2.698-112.475 7.174l-4.649.578L492.77 0H415.29l32.893 88.25-5.829 1.102c-28.864 5.46-56.358 11.819-82.546 18.523l-3.436.88L283.979 0Zm96.344 0 64.801 97.352c23.534-5.972 48.19-11.616 73.916-16.622L404.617 0ZM502.95 0l12.903 67.705c33.443-3.997 68.149-6.47 104.052-6.654L619.977 0Zm204.674 0-6.092 63.533c31.424 2.872 63.623 7.331 96.46 13.91L861.282 0ZM0 101.957v594.531l60-42.136V175Zm434.898 426.797c-6.16 0-12.291 3.65-5.287 10.935a7.5 7.5 0 0 1 5.287-2.185 7.5 7.5 0 0 1 5.288 2.187c7.006-7.286.873-10.937-5.288-10.937zm5.288 10.937c-.102.106-.18.205-.288.313.108-.108.208-.185.315-.287a7.5 7.5 0 0 0-.027-.026zm.027.026a7.5 7.5 0 0 1 2.185 5.287 7.5 7.5 0 0 1-2.187 5.287c14.572 14.012 14.573-24.584.002-10.574zm-.002 10.574c-.106-.102-.205-.18-.313-.287.108.108.185.208.287.314a7.5 7.5 0 0 0 .026-.027zm-.026.027a7.5 7.5 0 0 1-5.287 2.186 7.5 7.5 0 0 1-5.287-2.188c-14.012 14.573 24.584 14.574 10.574.002zm-10.574-.002c.102-.106.18-.205.287-.312-.108.108-.208.185-.314.287a7.5 7.5 0 0 0 .027.025zm-.027-.025a7.5 7.5 0 0 1-2.186-5.287 7.5 7.5 0 0 1 2.188-5.287c-14.572-14.012-14.574 24.583-.002 10.574zm.002-10.574c.106.102.205.18.312.287-.108-.108-.184-.208-.287-.315a7.5 7.5 0 0 0-.025.028zm71.816-10.963c-6.16 0-12.291 3.65-5.287 10.935a7.5 7.5 0 0 1 5.287-2.185 7.5 7.5 0 0 1 5.287 2.187c7.007-7.286.874-10.937-5.287-10.937zm5.287 10.937c-.102.106-.18.205-.287.313.108-.108.208-.185.315-.287a7.5 7.5 0 0 0-.028-.026zm.028.026a7.5 7.5 0 0 1 2.185 5.287 7.5 7.5 0 0 1-2.187 5.287c14.572 14.012 14.573-24.584.002-10.574zm-.002 10.574c-.106-.102-.205-.18-.313-.287.108.108.185.208.287.314a7.5 7.5 0 0 0 .026-.027zm-.026.027a7.5 7.5 0 0 1-5.287 2.186 7.5 7.5 0 0 1-5.287-2.188c-14.012 14.573 24.584 14.574 10.574.002zm-10.574-.002c.102-.106.18-.205.287-.312-.108.108-.208.185-.314.287a7.5 7.5 0 0 0 .027.025zm-.027-.025a7.5 7.5 0 0 1-2.186-5.287 7.5 7.5 0 0 1 2.188-5.287c-14.573-14.012-14.574 24.583-.002 10.574zm.002-10.574c.106.102.205.18.312.287-.108-.108-.185-.208-.287-.315a7.5 7.5 0 0 0-.025.028zm71.816-10.963c-6.16 0-12.292 3.65-5.287 10.935a7.5 7.5 0 0 1 5.287-2.185 7.5 7.5 0 0 1 5.287 2.187c7.006-7.286.873-10.937-5.287-10.937zm5.287 10.937c-.102.106-.18.205-.287.313.108-.108.208-.185.315-.287a7.5 7.5 0 0 0-.028-.026zm.028.026a7.5 7.5 0 0 1 2.185 5.287 7.5 7.5 0 0 1-2.187 5.287c14.572 14.012 14.573-24.584.002-10.574zm-.002 10.574c-.107-.102-.205-.18-.313-.287.108.108.185.208.287.314a7.5 7.5 0 0 0 .026-.027zm-.026.027a7.5 7.5 0 0 1-5.287 2.186 7.5 7.5 0 0 1-5.287-2.188c-14.012 14.572 24.584 14.574 10.574.002zm-10.574-.002c.102-.106.18-.205.287-.312-.108.108-.208.184-.314.287a7.5 7.5 0 0 0 .027.025zm-.027-.025a7.5 7.5 0 0 1-2.186-5.287 7.5 7.5 0 0 1 2.188-5.287c-14.573-14.013-14.574 24.583-.002 10.574zm.002-10.574c.106.102.204.179.312.287-.108-.108-.185-.208-.287-.315a7.5 7.5 0 0 0-.025.028zm71.814-10.963c-6.16 0-12.292 3.65-5.287 10.935a7.5 7.5 0 0 1 5.287-2.185 7.5 7.5 0 0 1 5.287 2.187c7.006-7.286.873-10.937-5.287-10.937zm5.287 10.937c-.102.106-.18.205-.287.313.108-.108.208-.185.315-.287a7.5 7.5 0 0 0-.028-.026zm.028.026a7.5 7.5 0 0 1 2.185 5.287 7.5 7.5 0 0 1-2.187 5.287c14.572 14.012 14.573-24.584.002-10.574zm-.002 10.574c-.107-.102-.205-.18-.313-.287.108.108.185.208.287.314a7.5 7.5 0 0 0 .026-.027zm-.026.027a7.5 7.5 0 0 1-5.287 2.186 7.5 7.5 0 0 1-5.287-2.188c-14.012 14.572 24.584 14.574 10.574.002zm-10.574-.002c.102-.106.18-.205.287-.312-.108.108-.208.184-.314.287a7.5 7.5 0 0 0 .027.025zm-.027-.025a7.5 7.5 0 0 1-2.186-5.287 7.5 7.5 0 0 1 2.188-5.288c-14.573-14.012-14.574 24.584-.002 10.575zm.002-10.575c.106.102.205.18.312.288-.108-.108-.185-.208-.287-.315a7.5 7.5 0 0 0-.025.027zm71.816-10.962c-6.16 0-12.292 3.65-5.287 10.935a7.5 7.5 0 0 1 5.287-2.185 7.5 7.5 0 0 1 5.287 2.187c7.006-7.286.873-10.937-5.287-10.937zm5.287 10.937c-.102.106-.18.205-.287.313.108-.108.208-.185.315-.288a7.5 7.5 0 0 0-.028-.025zm.027.025a7.5 7.5 0 0 1 2.186 5.288 7.5 7.5 0 0 1-2.187 5.287c14.572 14.012 14.573-24.584.002-10.575zm-.002 10.575c-.106-.102-.204-.18-.312-.287.108.108.185.208.287.314a7.5 7.5 0 0 0 .025-.027zm-.025.027a7.5 7.5 0 0 1-5.287 2.186 7.5 7.5 0 0 1-5.287-2.188c-14.012 14.572 24.584 14.573 10.574.002zm-10.574-.002c.102-.106.18-.205.287-.313-.108.108-.208.185-.314.288a7.5 7.5 0 0 0 .027.025zm-.027-.025a7.5 7.5 0 0 1-2.186-5.288 7.5 7.5 0 0 1 2.188-5.287c-14.573-14.012-14.574 24.584-.002 10.575zm.002-10.575c.106.102.204.18.312.287-.108-.108-.185-.208-.287-.314a7.5 7.5 0 0 0-.025.027zm71.814-10.963c-6.16 0-12.292 3.65-5.287 10.936a7.5 7.5 0 0 1 5.287-2.186 7.5 7.5 0 0 1 5.287 2.188c7.006-7.286.873-10.938-5.287-10.938zm5.287 10.938c-.102.106-.18.205-.287.312.108-.108.208-.184.314-.287a7.5 7.5 0 0 0-.027-.025zm.027.025a7.5 7.5 0 0 1 2.186 5.287 7.5 7.5 0 0 1-2.188 5.288c14.573 14.012 14.574-24.584.002-10.575zm-.002 10.575c-.106-.102-.204-.18-.312-.288.108.108.185.208.287.315a7.5 7.5 0 0 0 .025-.027zm-.025.027a7.5 7.5 0 0 1-5.287 2.185 7.5 7.5 0 0 1-5.287-2.187c-14.012 14.572 24.583 14.573 10.574.002zm-10.574-.002c.102-.106.18-.205.287-.313-.108.108-.208.185-.315.287a7.5 7.5 0 0 0 .028.026zm-.027-.026a7.5 7.5 0 0 1-2.186-5.287 7.5 7.5 0 0 1 2.187-5.287c-14.572-14.012-14.573 24.584-.002 10.574zm.002-10.574c.106.102.204.18.312.287-.108-.108-.185-.208-.287-.314a7.5 7.5 0 0 0-.026.027zM470 600l185 240c17.499-85.45 45-165 85-240zm680.832 132.959c-.01.68-.01 1.36-.01 2.041 0 106.313 63.636 195.399 149.178 218.92v-62.346c-46.11-17.785-81.745-62.134-93.36-117.394zM855.346 851.596c-5.123.09-10.463 2.545-15.346 8.404l-19.178 23.014 34.645 30.425L875 890c11.484-13.781-2.921-38.7-19.654-38.404zm48.607 53.824c-3.659.096-7.675 1.344-11.951 4.096l-25.887 16.66 24.733 38.896 25.562-16.45c16.625-10.7 7.3-43.723-12.457-43.202zm-101.336 1.625-.088 11.303a3 3 0 0 0-2.574-1.391A3 3 0 0 0 797 920v20a3 3 0 0 0 5.346 1.91L802 986.102c42.307 39.722 28.55 84.92 15.53 130.048l36.42 47.29c18.445-29.348 29.087-63.924 29.087-100.94 0-63.848-31.665-120.435-80.42-155.455zm-302.662 9.912A3 3 0 0 0 497 920v20a3 3 0 1 0 6 0v-20a3 3 0 0 0-3.045-3.043zm15 0A3 3 0 0 0 512 920v20a3 3 0 1 0 6 0v-20a3 3 0 0 0-3.045-3.043zm15 0A3 3 0 0 0 527 920v20a3 3 0 1 0 6 0v-20a3 3 0 0 0-3.045-3.043zm15 0A3 3 0 0 0 542 920v20a3 3 0 1 0 6 0v-20a3 3 0 0 0-3.045-3.043zm15 0A3 3 0 0 0 557 920v20a3 3 0 1 0 6 0v-20a3 3 0 0 0-3.045-3.043zm15 0A3 3 0 0 0 572 920v20a3 3 0 1 0 6 0v-20a3 3 0 0 0-3.045-3.043zm15 0A3 3 0 0 0 587 920v20a3 3 0 1 0 6 0v-20a3 3 0 0 0-3.045-3.043zm15 0A3 3 0 0 0 602 920v20a3 3 0 1 0 6 0v-20a3 3 0 0 0-3.045-3.043zm15 0A3 3 0 0 0 617 920v20a3 3 0 1 0 6 0v-20a3 3 0 0 0-3.045-3.043zm15 0A3 3 0 0 0 632 920v20a3 3 0 1 0 6 0v-20a3 3 0 0 0-3.045-3.043zm15 0A3 3 0 0 0 647 920v20a3 3 0 1 0 6 0v-20a3 3 0 0 0-3.045-3.043zm15 0A3 3 0 0 0 662 920v20a3 3 0 1 0 6 0v-20a3 3 0 0 0-3.045-3.043zm15 0A3 3 0 0 0 677 920v20a3 3 0 1 0 6 0v-20a3 3 0 0 0-3.045-3.043zm15 0A3 3 0 0 0 692 920v20a3 3 0 1 0 6 0v-20a3 3 0 0 0-3.045-3.043zm15 0A3 3 0 0 0 707 920v20a3 3 0 1 0 6 0v-20a3 3 0 0 0-3.045-3.043zm15 0A3 3 0 0 0 722 920v20a3 3 0 1 0 6 0v-20a3 3 0 0 0-3.045-3.043zm15 0A3 3 0 0 0 737 920v20a3 3 0 1 0 6 0v-20a3 3 0 0 0-3.045-3.043zm15 0A3 3 0 0 0 752 920v20a3 3 0 1 0 6 0v-20a3 3 0 0 0-3.045-3.043zm15 0A3 3 0 0 0 767 920v20a3 3 0 1 0 6 0v-20a3 3 0 0 0-3.045-3.043zm15 0A3 3 0 0 0 782 920v20a3 3 0 1 0 6 0v-20a3 3 0 0 0-3.045-3.043zm148.318 54.355c-2.104-.01-4.388.27-6.855.885l-28.98 7.227 12.845 44.303 26.668-6.65c20.958-5.228 21.157-45.65-3.678-45.765zm-20.502 71.096-.705 46.092 25.528.738c23.42.677 34.5-45.117 1.97-46.056zm-4.398 67.328-14.518 43.907 28.377 6.9c22.767 5.538 43.137-36.944 11.516-44.635zm-19.982 55.225-14.916 23.97 25.914 32.993c16.53-3.809 31.378-24.552 12.152-39.256z" transform="matrix(-1 0 0 1 1300 0)"/></symbol><symbol id="HJ3" preserveAspectRatio="none" viewBox="0 0 1300 2000"><path fill="#44F" d="m1011.237 1309.349-48.702-63.338C998.863 1193.62 1020 1130.484 1020 1062.5c0-75.31-25.938-144.672-69.62-200.32 21.09-55.64 47.446-108.17 80.685-158.012A453.494 453.494 0 0 0 1030 735c0 123.54 52.969 232.746 134.421 299.04-37.025 100.824-93.294 198.03-153.184 275.309zM748 366c20.005-2.57 42.8-23.897 48-29 4.093-4.017 14.922 4.34 14 10-19.782 10.298-48.043 21.628-62 19m-61-142c2.047 3.471 65.668-38.846 77-43 13.905-5.097 26.594 6.692 26 6l2 11s-16.41-11.864-25-9c-9 3-78.944 40.146-80 35zm101 9.5a8.5 15.5 0 0 1-8.5 15.5 8.5 15.5 0 0 1-8.5-15.5 8.5 15.5 0 0 1 8.5-15.5 8.5 15.5 0 0 1 8.5 15.5z" transform="matrix(-1 0 0 1 1300 0)"/></symbol><symbol id="HJ4" preserveAspectRatio="none" viewBox="0 0 1300 2000"><path d="M632.88 93.754c-110.56-.523-210.986 20.512-297.26 44.568l20.083 20.533C484.175 122.112 658.575 97.858 815 150l26.967-28.018c-72.766-19.84-142.75-27.914-209.086-28.228ZM265.925 512.605l-3.684 2.356-6.799 22.098 11.08 12.824 48.815-7.51-14.822 44.465 10.316 13.127 46.346-3.861-11.92 51.648 11.389 12.111 45.498-7.582-11.92 55.623 11.422 11.96 44.039-7.34-15.243 49.535 11.08 12.824 49.227-7.574-15.307 49.75L485 830h50.723l-15.121 41.582L530 885h49.47l-7.816 17.195 21.778.42 10.672-23.476L595 865h-50.723l15.121-41.582L550 810h-51.459l16.018-52.059-11.08-12.824-49.227 7.574 15.307-49.75-11.204-12.804-45.498 7.582 11.92-55.623-11.422-11.96-45.25 7.542 11.64-50.43-10.575-12.213-44.889 3.74 15.205-45.613-11.007-13.045-49.227 7.574 3.77-12.25zm627.3 30.627-44.745 6.885-8.223 12.131 12.752 55.256-55.256 12.752-6.982 13.59 21.154 50.77-50.77 21.154-5.384 13.076 21.675 52.025-42.59 25.555-3.597 13.43 20.896 37.615-43.4 34.72a9.999 9.999 0 0 0-3.707 9.862l22.803.472 43.396-34.716 2.496-12.664-20.303-36.547 41.706-25.024 4.085-12.42-21.154-50.77 50.77-21.154 5.384-13.076-20.447-49.072 53.465-12.338 7.496-11.992-12.578-54.506 52.484-8.076zM350 550a7.5 7.5 0 0 0-7.5 7.5 7.5 7.5 0 0 0 7.5 7.5 7.5 7.5 0 0 0 7.5-7.5 7.5 7.5 0 0 0-7.5-7.5zm-62.5 7.5a7.5 7.5 0 0 0-7.5 7.5 7.5 7.5 0 0 0 7.5 7.5 7.5 7.5 0 0 0 7.5-7.5 7.5 7.5 0 0 0-7.5-7.5zm605 20a7.5 7.5 0 0 0-7.5 7.5 7.5 7.5 0 0 0 7.5 7.5 7.5 7.5 0 0 0 7.5-7.5 7.5 7.5 0 0 0-7.5-7.5zM440 585l220 285c24.379-100.968 56.858-199.869 105-285Zm387.5 7.5a7.5 7.5 0 0 0-7.5 7.5 7.5 7.5 0 0 0 7.5 7.5 7.5 7.5 0 0 0 7.5-7.5 7.5 7.5 0 0 0-7.5-7.5zM470 600h270c-40 75-67.501 154.55-85 240zm-137.5 7.5a7.5 7.5 0 0 0-7.5 7.5 7.5 7.5 0 0 0 7.5 7.5 7.5 7.5 0 0 0 7.5-7.5 7.5 7.5 0 0 0-7.5-7.5zm60 0a7.5 7.5 0 0 0-7.5 7.5 7.5 7.5 0 0 0 7.5 7.5 7.5 7.5 0 0 0 7.5-7.5 7.5 7.5 0 0 0-7.5-7.5zm646.01 43.645c-51.91 68.37-89.416 142.62-117.31 222.341C964.095 924.86 990 990.71 990 1062.5c0 71.656-25.806 137.396-68.666 188.766l80.898 104.386c70.369-78.09 140.158-188.125 185.936-304.125-8.049-5.395-15.882-11.065-23.428-17.226-37.345 100.564-93.612 197.77-153.502 275.049l-48.703-63.338c36.328-52.39 57.465-115.528 57.465-183.512 0-4.86-.112-9.692-.326-14.5H1050a3 3 0 1 0 0-6h-30.65a322.335 322.335 0 0 0-2.428-24h45.578a3 3 0 1 0 0-6h-46.465a320.373 320.373 0 0 0-4.726-24H1065a3 3 0 1 0 0-6h-55.182a320.523 320.523 0 0 0-6.181-21H1080a6 6 0 0 0 4.396-1.834 380.079 380.079 0 0 1-6.33-10.166h-78.68a322.919 322.919 0 0 0-7.413-18H1065a6 6 0 0 0 2.568-.545c-2-3.775-3.94-7.594-5.826-11.455h-75.435a326.79 326.79 0 0 0-9.659-18h76.848a402.114 402.114 0 0 1-4.908-12h-79.219a331.63 331.63 0 0 0-12.316-18h84.978a411.36 411.36 0 0 1-3.822-12h-86.6a860.54 860.54 0 0 1 7.121-18h74.454a418.67 418.67 0 0 1-2.874-12h-66.546a816.478 816.478 0 0 1 7.945-18h54.992a425.375 425.375 0 0 1-1.967-12h-47.416a782.027 782.027 0 0 1 8.856-18h36.261c-.422-3.982-.79-7.982-1.103-12h-28.904c11.729-22.086 24.556-43.65 38.629-64.703 1.34-18.056 3.772-35.746 7.453-53.152zM842.5 652.5a7.5 7.5 0 0 0-7.5 7.5 7.5 7.5 0 0 0 7.5 7.5 7.5 7.5 0 0 0 7.5-7.5 7.5 7.5 0 0 0-7.5-7.5zm-465 15a7.5 7.5 0 0 0-7.5 7.5 7.5 7.5 0 0 0 7.5 7.5 7.5 7.5 0 0 0 7.5-7.5 7.5 7.5 0 0 0-7.5-7.5zm60 0a7.5 7.5 0 0 0-7.5 7.5 7.5 7.5 0 0 0 7.5 7.5 7.5 7.5 0 0 0 7.5-7.5 7.5 7.5 0 0 0-7.5-7.5zm345 10a7.5 7.5 0 0 0-7.5 7.5 7.5 7.5 0 0 0 7.5 7.5 7.5 7.5 0 0 0 7.5-7.5 7.5 7.5 0 0 0-7.5-7.5zm-300 45a7.5 7.5 0 0 0-7.5 7.5 7.5 7.5 0 0 0 7.5 7.5 7.5 7.5 0 0 0 7.5-7.5 7.5 7.5 0 0 0-7.5-7.5zm-65 5a7.5 7.5 0 0 0-7.5 7.5 7.5 7.5 0 0 0 7.5 7.5 7.5 7.5 0 0 0 7.5-7.5 7.5 7.5 0 0 0-7.5-7.5zM805 735a7.5 7.5 0 0 0-7.5 7.5 7.5 7.5 0 0 0 7.5 7.5 7.5 7.5 0 0 0 7.5-7.5 7.5 7.5 0 0 0-7.5-7.5zm-55 30a7.5 7.5 0 0 0-7.5 7.5 7.5 7.5 0 0 0 7.5 7.5 7.5 7.5 0 0 0 7.5-7.5 7.5 7.5 0 0 0-7.5-7.5zm456.824 9.256c11.444 55.19 47.068 99.532 93.176 117.316v-48.914c-31.005-22.778-62.007-45.555-93.176-68.402zM462.5 782.5a7.5 7.5 0 0 0-7.5 7.5 7.5 7.5 0 0 0 7.5 7.5 7.5 7.5 0 0 0 7.5-7.5 7.5 7.5 0 0 0-7.5-7.5zm65 0a7.5 7.5 0 0 0-7.5 7.5 7.5 7.5 0 0 0 7.5 7.5 7.5 7.5 0 0 0 7.5-7.5 7.5 7.5 0 0 0-7.5-7.5zm250 35a7.5 7.5 0 0 0-7.5 7.5 7.5 7.5 0 0 0 7.5 7.5 7.5 7.5 0 0 0 7.5-7.5 7.5 7.5 0 0 0-7.5-7.5zm-270 25a7.5 7.5 0 0 0-7.5 7.5 7.5 7.5 0 0 0 7.5 7.5 7.5 7.5 0 0 0 7.5-7.5 7.5 7.5 0 0 0-7.5-7.5zm65 0a7.5 7.5 0 0 0-7.5 7.5 7.5 7.5 0 0 0 7.5 7.5 7.5 7.5 0 0 0 7.5-7.5 7.5 7.5 0 0 0-7.5-7.5zM725 845a7.5 7.5 0 0 0-7.5 7.5 7.5 7.5 0 0 0 7.5 7.5 7.5 7.5 0 0 0 7.5-7.5 7.5 7.5 0 0 0-7.5-7.5z" transform="matrix(-1 0 0 1 1300 0)"/></symbol><symbol id="HJ5" preserveAspectRatio="none" viewBox="0 0 1300 2000"><path stroke="#44F" stroke-linecap="round" stroke-linejoin="round" stroke-width="6" fill="none" d="M802.5 1097.5v-195h-305M802.463 920H497.865m304.393 20H497.455M802.5 902.5l277.25-358.395M772.5 902.5l287.617-371.797M662.5 902.5l305.457-394.86M632.5 902.5 940 505m-483.545 2.421C557.736 619.634 597.744 759.866 632.5 902.5M438.398 521.114C530.95 630.934 569.143 765.611 602.5 902.5M372.233 569.282C450.747 668.405 497.573 779.685 527.5 902.5M352.888 583.064C425.028 678.686 468.952 785.345 497.5 902.5M280.554 637.169c52.411 65.676 90.817 136.71 119.54 212.92m-138.8-199.13c52.106 68.555 89.611 142.805 117.271 222.55m88.831-71.955C373.586 852.124 310 950.023 310 1062.5c0 71.656 25.807 137.396 68.796 188.75m111.74-375.97c-62.646 39.588-104.134 108.648-104.134 187.22 0 47.078 14.894 90.74 40.31 126.695m70.67-282.15c-48.754 35.02-80.42 91.607-80.42 155.455 0 37.016 10.644 71.591 29.09 100.939M889.553 570H504.94m423.364-50H468.656M920 490H480L0 842.653m1033.935-329.94L1300 696.208m-235.472-132.395L1300 726.207M349.523 862.55C305.938 917.828 280 987.191 280 1062.5c0 67.984 21.137 131.121 57.313 183.425M.023 1096.3C152.665 1070.987 270 918.87 270 735c0-28.79-2.877-56.801-8.315-83.67M.003 984.665C99.959 960.596 175.069 857.962 175.069 735c0-6.74-.226-13.42-.67-20.028M.069 953.91C85.577 930.36 149.178 841.287 149.178 735c0-.681 0-1.361-.01-2.041M.014 891.586c46.105-17.787 81.731-62.15 93.345-117.406m-5.544 292.24c49.392 119.253 123.424 231.133 195.84 307.034m-171.797-321.758c45.752 115.83 115.542 225.867 185.645 304.261m-162.32-321.663c37.421 100.57 93.69 197.776 153.481 274.922m48.954-63.12-48.757 63.385M268.986 704.29c33.188 49.72 59.544 102.25 80.73 157.52M877.361 585H515.1M.017 1077.842C143.49 1058.675 255 914.194 255 738.805c0-26.881-2.62-53.037-7.572-78.126m-6.827 80.43c0-.767.01-1.535.01-2.304 0-23.564-2.119-46.54-6.143-68.676m-12.38 186.235c8.2-24.99 13.862-51.487 16.612-79.042m-79.018 191.77c20.107-23.634 37.136-50.952 50.307-81.03M58.516 1044.487c31.033-13.014 59.491-32.495 84.226-57.078M.04 1060.643a233.243 233.243 0 0 0 23.895-4.65m199.55-337.722a358.968 358.968 0 0 0-4.003-37.022m-13.19 169.118c8.154-24.563 13.695-50.687 16.217-77.89m-72.541 180.368c17.576-21.1 32.571-45.234 44.38-71.68M47.329 1028.253c28.584-11.096 54.958-27.99 78.135-49.51M206.74 715.83a336.361 336.361 0 0 0-2.375-23.247m-7.264 129.451a327.893 327.893 0 0 0 6.891-34.376M149.18 924.94c7.863-10.799 15.053-22.306 21.495-34.43M58.547 1002.43c13.809-6.724 26.972-14.93 39.35-24.455m92.981-246.44a315.989 315.989 0 0 0-1.868-27.93m1.92 30.736c-.013-.937-.03-1.872-.051-2.807m-.243 21.69a319.787 319.787 0 0 0 .294-18.883m-11.772 89.733a304.508 304.508 0 0 0 8.896-42.388m-19.078 71.966c1.02-2.518 2.01-5.058 2.965-7.62m-38.852 70.849c8.722-11.416 16.618-23.738 23.575-36.833m-46.542 62.922a239.65 239.65 0 0 0 3.459-3.477M.025 1001.212c32.013-5.54 61.824-19.135 87.925-38.996m87.004-109.794c-24.758-39.988 53.606-42.759 29.062-2.32 45.25.959 12.432 62.742-13.338 26.872-16.59 40.725-65.92-19.528-15.724-24.552h0m23.89-102.829c-32.723-33.783 43.244-53.216 27.897-8.47 44.411-8.721 25.536 58.643-7.296 29.1-7.514 43.327-68.57-5.008-20.602-20.63h0m-84.757 193.64c-11.993-45.477 63.761-25.23 28.473 6.273 42.995 14.138-6.444 63.636-20.608 21.802-27.764 34.1-57.339-37.936-7.865-28.075h0M-.134 1010.07c5.027-2.306 12.267-1.873 21.938 3.425 2.191-46.981 68.392-4.957 25.283 14.519 36.78 26.376-25.223 58.779-26.195 14.622-8.812 5.811-15.89 5.757-20.947 2.654m497.71-4.005c-12.292-6.088-37.198-17.855-52.655-21.284-31.902-7.076-33.675 38.555-5 40 14.795.745 43.333 3.13 57.14 4.316m.601-11.13L465 1045m31.998-27.773c-8.416-9.36-23.833-25.792-34.758-33.279-23.75-16.274-40.204 20.442-17.24 31.052 15.996 7.39 51.487 25.46 51.487 25.46m.872-9.927-26.992-19.574m26.832-42.387c-3.872-6.98-7.984-13.67-11.743-18.34-18.053-22.427-44.39 7.991-25.456 24.768 9.832 8.712 28.329 26.23 37.107 34.582m.33-15.414-11.981-15.728m11.863-62.202c-12.41.88-23.558 16.505-13.283 30.13 3.496 4.636 8.31 11.292 13.194 18.135m-.438 103.301c-13.221-1.658-41.624-4.727-57.747-2.804-32.448 3.87-19.034 47.521 8.507 39.404 12.404-3.657 35.107-9.598 49.603-13.34m-.272-11.915-30.697 2.832m30.99 9.45c-13.123 3.413-40.07 10.94-54.14 18.569-25.83 14.005-5.327 44.21 15.497 37.286m30.268-38.778-14.273 7.253m4.65-232.748L460 860c-20.833-25-50 12-35 30l19.533 23.44m-10.648 12.736-25.888-16.661c-27.365-17.612-44.11 26.426-24.406 39.106l25.56 16.45m-6.588 14.353-28.98-7.227c-31.576-7.875-33.268 39.208-10.533 44.878l26.667 6.65m-2.49 18.683-26.791.774c-32.53.94-21.45 46.732 1.97 46.056l25.527-.738m3.695 21.236-25.376 6.172c-31.62 7.69-11.25 50.173 11.516 44.636l28.376-6.902m5.466 11.32-23.151 17.705c-19.227 14.704-4.377 35.45 12.153 39.257m68.767-416.036c-8.31 11.195-11.712 25.645-4.933 37.823-33.98-40.776-81.55 19.572-57.085 48.93-44.634-28.725-71.945 43.102-39.809 63.784-51.5-12.844-54.259 63.95-17.179 73.198-53.056 1.532-34.986 76.22 3.214 75.118-51.574 12.544-18.35 81.834 18.783 72.802-29.402 22.487-9.945 53.634 14.82 62.554M1300 27.174 1195 155v468.153m105-521.197L1240 175v479.351m-45.543-433.45C1128.112 160.994 1146.867 122.458 1150 80c-151.153 128.774-109.829 254.773-15 380 .731-59.309 8.18-112.84 60.466-127.797m-48.533-228.21C1124.589 133 1099.4 160.302 1145 230c-20.188 7.868-40.478 13.66-60 35 15.899 24.348 37.565 33.206 60 40-17.25 36.87-52.183 61.332-9.94 139.946m-921.1 240.608c-1.723-14.746-5.188-42.095-8.96-45.554-5.241-4.806-44.33-54.33-50-60-5-5-35-10-40-10s-26.73 9.53-30 25c-9.58 45.312 10.243 75.366 35 10 10 10 15 10 30 10-42.72 33.895-28.888 60.209 15 80m-54.832-125.17c-3.706-4.796-8.718-9.813-15.168-14.83-30.749-23.916-77.015-7.611-30 30 6.876 5.5 13.28 9.583 19.093 12.442m-15.06-9.207c-37.403-11.47-66.809 9.202-8.431 42.197 55.596 31.424 78.104 13.095 54.412-13.082m-53.107 13.57c-34.28-2.653-54.672 18.516 2.566 38.272 59.976 20.701 76.954-1.871 43.853-22.363M62.504 668.58c-34.15-2.053-55.894 22.657-.33 36.419 57.162 14.158 68.359-12.308 31.514-28.41m28.49 76.72c-22.273-6.891-50.558-31.936-53.307-46.624m62.557-34.09C126.549 691.931 147.312 716.343 150 715m135-250c5 40-35 55-75 25-53.815-40.36-157.09-42.075-105 65 10-35 72.804-22.126 115 5 70 45 135-65 65-95h0m0 0c45.453 52.655-14.216 101.957-90 50-74.272-50.92-112.522 23.688-90 40l5 15m16.173-104.722c-8.656 16.019-15.13 32.112-16.275 48.387m39.75-48.355c-9.919 11.142-17.945 22.907-22.308 35.877m62.769-23.221c-9.181 6.823-17.741 14.14-24.699 22.41m58.237-1.766c-12.964 2.473-25.084 6.157-35.63 12.093m62.977-4.685c-9.893 7.502-18.578 15.684-25.12 25.074m54.327-39.752c-7.39 15.133-13.117 30.231-14.738 45.245m-130.478-2.62c-5.593-10.021-4.31-21.725-.053-35.11m23.11 36.61c-4.67-10.08-3.387-22.601-.018-37.077m40.833 49.948c-4.647-8.76-5.254-20.123-4.458-33.296m53.32 55.416c-7.155-8.407-10.15-21.05-12.29-36.07m60.044 18.127c-6.742-4.077-12.714-10.692-18.646-18.784m216.036-386.661C487.119 165.268 480 189.034 480 195c0 11.18 5 13.128 5 20 0 5-40 70-40 90s20 20 25 20 0 20 0 25 5 15 5 15-5 7.929-5 15c0 15 30 15 30 15s-5 15-5 20-20 0-20 25c0 10 30 35 40 35s20-10 30-10 25 10 35 10 61.026-20.513 80-30c10-5 8.577-19.972 25.6-26.568 10.395-4.028 21.739-19.195 30.499-36.124M500 295c39.021 3.503 15.755 40.282-20 15-8.165-5.773 0 5 0 5 9.083 0 18.017 4.731 25 4m47 47c-20.005-2.57-42.8-23.897-48-29-4.093-4.017-14.922 4.34-14 10 19.782 10.298 48.043 21.628 62 19m-36 8c-14.112-2.18-28.148-.782-41-10m138-140c-2.047 3.471-65.668-38.846-77-43-13.905-5.097-26.594 6.692-26 6l-2 11s16.41-11.864 25-9c9 3 78.944 40.146 80 35h0m-28 21c-33.347-2.168-60.226-31.538-87-30m57.04 21.788c12.434 28.455-40.764 7.827-58.04 17.212m-17 236 24.893-18.67m428.658-315.276C985.445 278.493 916.139 375.084 980 480c9.532 15.66 50 25 55 0 8.825-44.126-50.246-27.892-35-10m-88.83-319.798C968.98 274.732 904.211 368.424 960 480c20 40 91.159 51.01 95 5 6.657-79.736-95-60-75-5m-91.713-335.824C951.093 271.727 883.316 366.631 940 480c12.344 24.689 44.178 38.333 67.644 34.343m-141.79-375.057c67.44 130.026 1.74 225.9 59.146 340.714 8.547 17.094 22.772 24.414 38.504 25.976M843.652 135.077C914.709 266.557 846.982 353.963 905 470c12.344 24.689 36.535 38.99 60 35M821.652 131.421C895.968 264.677 826.447 347.894 885 465c11.864 23.728 30.05 33.243 52.279 30.405M799.721 128.004C877.161 263.26 805.948 346.896 865 465c12.344 24.689 26.535 28.99 50 25M778.317 125.573C858.017 262.263 785.595 346.19 845 465c12.344 24.689 31.535 28.99 55 25M756.985 123.306C838.82 261.18 765.268 335.536 825 455c12.344 24.689 26.535 33.99 50 30M736.016 121.683C819.398 260.56 745.034 330.067 805 450c12.344 24.689 26.535 33.99 50 30M715.42 120.692C799.751 260.213 724.89 324.782 785 445c10.357 20.714 18.493 27.076 34.703 26.232M695 120c85 140 9.792 189.584 70 310 9.215 18.43 16.672 28.284 29.62 30.438M675 120c85 140 9.792 179.584 70 300 6.153 12.306 15.25 18.305 25.732 20.732m-115.355-320.11C739.763 260.029 659.88 269.762 720 390c7.445 14.89 13.743 22.365 22.718 25.077m221.664-276.843C826.34 99.833 652.075 69.077 458.074 121.819M1100.352 0 944.297 158.855C815.825 122.112 641.425 97.858 485 150L339.545 0"/></symbol><symbol id="HJ6" preserveAspectRatio="none" viewBox="0 0 1300 2000"><g transform="matrix(-1 0 0 1 1300 0)"><path stroke="#44F" stroke-linecap="round" stroke-linejoin="round" stroke-width="3" fill="none" d="M115 211.838v124.197m10-134.865v140.314m10-152.879v160.713m10-177.425v189.582M155 90v292.195m10-288.793V455m10-351.965V446.28m10-332.818v318.725m10-307.416v292.406m10-279.942v263.631m10-249.625v231.977m10-215.399v195.68M1202 680c9.81 8.788 7.628 26.84 4 27m-12-58c9.81 8.788 7.628 26.84 4 27m17-73c-9 5-4 36-4 36m10 9c3.216 4.712 3.826 10.284 4 16m6 18c3.216 4.712 3.826 10.284 4 16M804 254c-2.915-2.551-26.04 5.376-27 11m26-51c-12 3-23-10-37-10-4.123 0-22 8-22 8m41.397 5.99c3.634 2.779 5.513 8.267 5.603 14.51 0 10.217-6.492 18.5-14.5 18.5s-14.5-8.283-14.5-18.5c0-1.545.148-3.046.428-4.48M594.212 400h-19.5m33.457 15h-50.492m70.197 15H548.03m91.748 15H526.273M670 460H510m135 15H474.754"/><use xlink:href="#SHJ" height="100" transform="matrix(1 0 0 .877 496 956.15)"/><use xlink:href="#SHJ" height="100" transform="matrix(-1 0 0 -.877 665 1043.85)"/><use xlink:href="#SHJ" height="75" transform="scale(1 .877) rotate(30 -1122.081 2039.575)"/><use xlink:href="#SHJ" height="75" transform="scale(1 .877) rotate(30 -967.778 2062.23)"/><use xlink:href="#SHJ" height="75" transform="scale(1 .877) rotate(30 -809.975 2097.946)"/><use xlink:href="#SHJ" height="75" transform="matrix(.5 .7595 -.86603 .4385 233.543 588.674)"/><use xlink:href="#SHJ" height="75" transform="matrix(.5 .7595 -.86603 .4385 168.543 683.674)"/><use xlink:href="#SHJ" height="75" transform="matrix(.5 .7595 -.86603 .4385 65.543 683.674)"/><use xlink:href="#SHJ" height="75" transform="matrix(.5 .7595 -.86603 .4385 109.543 780.674)"/></g></symbol><rect width="211" height="328" x="-105.5" y="-164" rx="12" ry="12" fill="#fff" stroke="#000"/><use width="144.8" height="253.8" x="-72.4" y="-126.9" xlink:href="#HJ1"/><use transform="rotate(180)" width="144.8" height="253.8" x="-72.4" y="-126.9" xlink:href="#HJ1"/><use width="144.8" height="253.8" x="-72.4" y="-126.9" xlink:href="#HJ2"/><use transform="rotate(180)" width="144.8" height="253.8" x="-72.4" y="-126.9" xlink:href="#HJ2"/><use width="144.8" height="253.8" x="-72.4" y="-126.9" xlink:href="#HJ3"/><use transform="rotate(180)" width="144.8" height="253.8" x="-72.4" y="-126.9" xlink:href="#HJ3"/><use width="144.8" height="253.8" x="-72.4" y="-126.9" xlink:href="#HJ4"/><use transform="rotate(180)" width="144.8" height="253.8" x="-72.4" y="-126.9" xlink:href="#HJ4"/><use width="144.8" height="253.8" x="-72.4" y="-126.9" xlink:href="#HJ5"/><use transform="rotate(180)" width="144.8" height="253.8" x="-72.4" y="-126.9" xlink:href="#HJ5"/><use width="144.8" height="253.8" x="-72.4" y="-126.9" xlink:href="#HJ6"/><use transform="rotate(180)" width="144.8" height="253.8" x="-72.4" y="-126.9" xlink:href="#HJ6"/><use xlink:href="#VHJ" height="32" x="-100.4" y="-152.5"/><use xlink:href="#SHJ" height="26.769" x="-97.784" y="-115.5"/><use xlink:href="#SHJ" height="48.68" x="-78.514" y="-125.86"/><g transform="rotate(180)"><use xlink:href="#VHJ" height="32" x="-100.4" y="-152.5"/><use xlink:href="#SHJ" height="26.769" x="-97.784" y="-115.5"/><use xlink:href="#SHJ" height="48.68" x="-78.514" y="-125.86"/></g><use xlink:href="#XHJ" stroke="#44F" fill="none"/></svg>