<svg xmlns="http://www.w3.org/2000/svg" xmlns:xlink="http://www.w3.org/1999/xlink" class="card" height="336" preserveAspectRatio="none" viewBox="-106 -164.5 212 329" width="216"><symbol id="SHJ" viewBox="-600 -600 1200 1200" preserveAspectRatio="xMinYMid"><path d="M0-300c0-100 100-200 200-200s200 100 200 250C400 0 0 400 0 500 0 400-400 0-400-250c0-150 100-250 200-250S0-400 0-300Z" fill="red"/></symbol><symbol id="VHJ" viewBox="-500 -500 1000 1000" preserveAspectRatio="xMinYMid"><path d="M50-460h200m-100 0v710a100 100 0 0 1-400 0v-30" stroke="red" stroke-width="80" stroke-linecap="square" stroke-miterlimit="1.5" fill="none"/></symbol><rect width="211" height="328" x="-105.5" y="-164" rx="12" ry="12" fill="#fff" stroke="#000"/><use xlink:href="#VHJ" height="108" x="-54" y="-54"/><use xlink:href="#VHJ" height="50" x="-104" y="-152.5"/><use xlink:href="#SHJ" height="41.827" x="-99.913" y="-97.5"/><g transform="rotate(180)"><use xlink:href="#VHJ" height="50" x="-104" y="-152.5"/><use xlink:href="#SHJ" height="41.827" x="-99.913" y="-97.5"/></g></svg>