<svg xmlns="http://www.w3.org/2000/svg" xmlns:xlink="http://www.w3.org/1999/xlink" class="card" height="336" preserveAspectRatio="none" viewBox="-106 -164.5 212 329" width="216"><defs><path id="XDQ" d="M-72.4-126.9H72.4v253.8H-72.4z"/></defs><symbol id="VDQ" viewBox="-500 -500 1000 1000" preserveAspectRatio="xMinYMid"><path d="M-260 100c300 0 220 360 520 360M-175 0v-285a175 175 0 0 1 350 0v570a175 175 0 0 1-350 0Z" stroke="red" stroke-width="80" stroke-linecap="square" stroke-miterlimit="1.5" fill="none"/></symbol><symbol id="SDQ" viewBox="-600 -600 1200 1200" preserveAspectRatio="xMinYMid"><path d="M-400 0C-350 0 0-450 0-500 0-450 350 0 400 0 350 0 0 450 0 500 0 450-350 0-400 0Z" fill="red"/></symbol><symbol id="DQ1" preserveAspectRatio="none" viewBox="0 0 1300 2000"><path fill="#FC4" d="M216.555 0c22.671 33.815 49.204 66.355 53.94 105.508l-25.364 36.035-3.986-4.102c6.32-11.198 5.98-26.775-9.49-42.414C199.507 62.532 146.221 132.374 90 90c50 50-6.776 124.444 29.752 149.355 25.358 17.294 44.433 10.197 53.541-3.55l3.41 3.119c-8.946 12.73-17.892 25.461-26.592 37.853-25.816 4.595-50.6 6.062-70.111-6.777-14.682 26.212-45.302 28.698-70 40 61.376.312 120.483 3.772 154.338 42.287L411.893 0H216.555zm416.918 0 8.816 25.467C760.632 186.749 859.8 286.03 876.721 574.873l31.297 25.848C895.37 279.397 784.08 169.326 660.838 0h-27.365zm49.304 231.158-3.29 51.135a529.277 529.277 0 0 1 10.33 18.457c24.306 45.579 42.877 96.272 54.718 165.254l34.537 28.36c-15.83-119.84-49.161-192.812-96.295-263.206zm-402.35 171.684-11.126 27.957c90.347 32.01 178.351 53.163 271.209 57.447-21.405-9.819-42.855-20.98-60.51-18.246-24.29 3.763-48.682-9.915-69.5-29.479-42.951-9.33-86.012-22.163-130.072-37.68zm-11.165 28.033C243.943 488.3 208.577 533.649 166.486 568c116.13 44.757 235.198 76.286 363.186 83.35l-2.276-.018L628.943 861.68l95.983-7.366c-73.626 12.42-154.804 10.872-249.02-14.789l6.092 32.59c160.352 40.145 287.864 12.701 399.988-33.312l-10.918-27.94c-46.131 19.01-94.092 34.636-145.77 43.389l-97.603-202.178-4.16-.031c89.463-3.608 183.635-19.569 284.367-51.379L750.936 471.48l-30.266-24.807c-32.206 5.738-63.265 9.475-93.135 10.875-7.876 11.692-16.5 22.512-25.623 30.974 40.733-.486 83.422-4.828 128.137-12.99-44.724 8.17-87.476 12.572-128.684 13.494C593.907 495.794 586.486 500 580 500c-11.754 0-25.097-5.31-38.824-11.453-93.522-4.586-181.528-25.74-271.914-57.672zm869.035 68.377c-22.784.772-47.828 39.967-8.297 50.748-55 15 15 85 30 30 15 55 85-15 30-30 55-15-15-85-30-30-4.219-15.469-12.788-21.05-21.703-20.748zm136.127 104.445c-23.587-.514-39.81 16.03-54.424 36.303l15 10c24.284-10.693 46.335-22.648 50-45-3.687-.808-7.207-1.23-10.576-1.303zm-221.385 25.215c-17.503.055-35.16 7.582-53.039 26.088 39.672 4.959 54.753 44.346 137.924 20.602l1.693-.938c-28.657-25.18-57.406-45.844-86.578-45.752zm-27.89 68.434-132.8 160.218c20.037 27.174 39.698 49.955 58.553 71.457C921.952 972.377 905 1023.82 905 1080c0 95.074 48.797 177.617 123.053 226.049l15.675 10.223 53.934-53.58c-1.894-19.38-4.182-37.427-6.965-53.876-4.039 1.088-8.097 1.296-12.236.99C1016.016 1206.1 970 1151.352 970 1090c0-29.304 10.124-57.732 29.367-80.127 3.22-3.856 6.962-7.155 10.533-10.05 42.224 57.385 74.671 127.706 87.983 262.47l170.73-170.865 15.026-14.893-.024-.12 16.385-16.4v-.007l-16.387 16.392c-6.905-37.354-17.927-72.609-39.068-101.388-17.397-23.684-41.763-42.338-74.684-53.196-5.923-4.443-15.715-8.488-29.9-11.015a40 40 0 0 1-39.156 39.17c11.378 63.779 53.95 39.17 44.195 5.029 14.485 4.138 27.256-1.142 32.21-9.46 22.213 9.907 38.579 24.106 51.218 41.312 14.532 19.783 24.031 44.131 30.224 70.37-16.884-23.369-41.272-2.487-33.642 24.217-18.716-5.347-34.572 5.033-34.543 17.467-19.833-6.863-37.303-16.203-51.385-29.021-25.365-23.089-41.373-57.883-41.193-113.778.443-1.684.886-3.81 1.306-6.148A40 40 0 0 1 1060 910a40 40 0 0 1 40-40 40 40 0 0 1 39.97 39.195c63.78-11.378 39.17-53.95 5.03-44.195 9.139-31.986-27.659-55.621-41.988-4.662-6.604-30.946-16.217-61.528-33.072-87.512L1300 962.393V923.54l-274.852-226.195zm-3.782 52.2c10.657 7.85 19.522 17.043 27.06 27.306 11.322 15.412 19.588 33.595 25.202 53.597-13.245-.552-24.066 15.521-18.629 34.551-24.132-6.895-43.51 12.357-30.252 28.37-25.781-7.16-48.3-17.678-65.666-33.485-5.606-5.103-10.756-10.778-15.373-17.135l77.658-93.203zm212.479 9.975-15.77 2.196c13.8 28.309 34.269 51.3 14.559 106.336l12.414 9.654c12.691-33.117 12.725-58.556 6.767-78.838-4.666-15.888-12.026-28.085-17.97-39.348zM1015 810c-8.284 0-15 6.716-15 15 0 8.284 6.716 15 15 15 8.284 0 15-6.716 15-15 0-8.284-6.716-15-15-15zm-78.44 55.57a129.504 129.504 0 0 0 9.06 9.106c24.941 22.704 57.134 35.169 92.028 42.886-33.902 16.09-11.727 45.746 17.352 37.438-6.494 22.727 10.204 41.238 25.162 32.348 4.917 43.822 21.223 75.268 45.457 97.328 27.69 25.205 64.317 37.79 104.244 45.158l36.348-36.025-141.383 141.433c-13.615-111.338-41.96-181.004-78.51-235.687-33.368-49.923-71.292-86.38-109.757-133.985zm-54.247 5.424C771.48 914.7 641.83 940.414 484.707 903.615l.324 30.81c143.122 31.823 266.358 13.765 371.356-21.993l25.926-41.438zM1175 1005a15 15 0 0 0-15 15 15 15 0 0 0 15 15 15 15 0 0 0 15-15 15 15 0 0 0-15-15zm-30 130c-8.284 0-15 6.716-15 15 0 8.284 6.716 15 15 15 8.284 0 15-6.716 15-15 0-8.284-6.716-15-15-15z" transform="matrix(-1 0 0 1 1300 0)"/></symbol><symbol id="DQ2" preserveAspectRatio="none" viewBox="0 0 1300 2000"><path fill="red" d="M411.893 0 0 586.152V715.77L502.973 0Zm230.53 25.78C660.15 77.16 690 165.892 690 180c0 13.049-4.256 34.612-7.219 50.98 47.13 70.573 80.46 143.543 96.291 263.383l97.649 80.51C859.799 286.03 760.633 186.748 642.424 25.779ZM1160 445c-22.788 0-45.574 18.414-27.506 55.24 10.8-3.24 22.373.94 27.506 19.76 5.133-18.82 16.705-23 27.506-19.76 18.068-36.826-4.718-55.24-27.506-55.24Zm-73.88 70.963c-48.389-.4-40.347 93.172 24.12 61.543-3.24-10.8.94-22.373 19.76-27.506-18.82-5.133-23-16.705-19.76-27.506-9.185-4.506-17.227-6.474-24.12-6.531zm147.76 0c-6.893.057-14.935 2.025-24.12 6.531 3.24 10.8-.94 22.373-19.76 27.506 18.82 5.133 23 16.705 19.76 27.506 64.467 31.629 72.508-61.943 24.12-61.543zM1160 533.664A16.158 16.336 0 0 0 1143.842 550 16.158 16.336 0 0 0 1160 566.336 16.158 16.336 0 0 0 1176.158 550 16.158 16.336 0 0 0 1160 533.664Zm0 46.336c-5.133 18.82-16.705 23-27.506 19.76-36.135 73.652 91.147 73.652 55.012 0-10.8 3.24-22.373-.94-27.506-19.76Zm-277.832 60.62c-72.056 19.599-141.373 32.177-208.139 38.247l81.155 169.358c40.212-8.87 78.642-22.015 115.687-37.704C863.78 788.403 860 764.74 860 740c0-35.877 7.95-69.491 22.168-99.38zm-507.363 20.685c49.626 47.836 85.528 109.62 101.197 178.605 41.477 10.938 80.512 17.569 118.213 20.363L508.072 679.82c-45.301-3.45-89.723-9.771-133.267-18.515zM1100 885a25 25 0 0 0-25 25 25 25 0 0 0 25 25 25 25 0 0 0 25-25 25 25 0 0 0-25-25zm-62.447 157.744c-11.378 12.652-17.553 29.63-17.553 47.256 0 37.163 26.967 67.85 61.428 69.79-11.175-48.272-26.047-85.33-43.875-117.046z" transform="matrix(-1 0 0 1 1300 0)"/></symbol><symbol id="DQ3" preserveAspectRatio="none" viewBox="0 0 1300 2000"><path fill="#44F" d="m664.824 217.748-17.85 3.004c-1.752 4.07-2.802 9.262-2.802 14.92 0 13.058 5.596 23.644 12.5 23.644 6.903 0 12.5-10.586 12.5-23.644 0-7.167-1.686-13.588-4.348-17.924zm-152.324.43a12.5 23.644 0 0 0-12.5 23.644 12.5 23.644 0 0 0 12.5 23.645 12.5 23.644 0 0 0 12.5-23.645 12.5 23.644 0 0 0-12.5-23.644ZM283.738 393.406l-3.31 9.436c44.06 15.516 87.121 28.348 130.32 37.861l-12.828-13.152c-37.73-9.002-75.516-20.527-114.182-34.145zm426.748 44.89c-26.25 4.427-51.715 7.504-76.586 9.327l-6.72 10.434c30.225-1.91 61.284-5.647 93.49-11.385zM137.471 589.21c-23.17 15.07-48.005 27.179-73.742 36.041L0 715.793v181.795l264.234-264.156c-42.968-12.7-85.195-27.608-126.763-44.223Zm770.646 11.545C878.406 636.06 860 685.41 860 740c0 44.177 12.055 84.923 32.361 117.592l132.875-160.174Zm-346.16 52.008 99.924 208.527c11.205-.632 22.438-1.553 32.84-2.764l-99.953-205.693c-10.825.111-21.598.054-32.811-.07zm-187.164 8.52c43.554 8.765 87.978 15.087 133.482 18.47zM595 677.274a10 10 0 0 1 10 10 10 10 0 0 1-10 10 10 10 0 0 1-10-10 10 10 0 0 1 10-10zm22.434 46.684a10 10 0 0 1 10 10 10 10 0 0 1-10 10 10 10 0 0 1-10-10 10 10 0 0 1 10-10zm22.431 46.684a10 10 0 0 1 10 10 10 10 0 0 1-10 10 10 10 0 0 1-10-10 10 10 0 0 1 10-10zm22.434 46.685a10 10 0 0 1 10 10 10 10 0 0 1-10 10 10 10 0 0 1-10-10 10 10 0 0 1 10-10zm255.71 73.764a7.5 7.5 0 0 0-7.5 7.5 7.5 7.5 0 0 0 7.5 7.5 7.5 7.5 0 0 0 7.5-7.5 7.5 7.5 0 0 0-7.5-7.5zm17.15 19.9-37.386 9.447-5.103 10.116 12.475 30.427-33.979 17.6-3.074 10.357 18.11 31.944-29.548 24.033-.972 10.686 24.937 29.23-23.726 34.486 1.578 10.174 31.504 24.47-15.385 37.474 3.916 9.712 36.086 15.887-5.526 41.418 6.098 8.371 38.596 6.985 3.013 40.162 6.782 6.906 47.527 4.445-2.658 25.438 16.752-15.975 1.613-15.443-6.762-8.246-48.77-4.563-2.974-39.633-6.142-6.818-37.26-6.742 5.324-39.906-4.412-7.856-34.549-15.21 14.772-35.981-2.338-8.772-30.416-23.627 22.976-33.396-.474-9.117-23.688-27.768 28.508-23.187 1.793-9.518-17.395-30.684 33.155-17.172 3.488-9.503-11.797-28.78 33.365-8.431a7.476 7.476 0 0 0 3.184-1.637zm-49.991 36.955a7.5 7.5 0 0 0-7.5 7.5 7.5 7.5 0 0 0 7.5 7.5 7.5 7.5 0 0 0 7.5-7.5 7.5 7.5 0 0 0-7.5-7.5zm-19.293 62.192a7.5 7.5 0 0 0-7.5 7.5 7.5 7.5 0 0 0 7.5 7.5 7.5 7.5 0 0 0 7.5-7.5 7.5 7.5 0 0 0-7.5-7.5zm-5.543 67.324a7.5 7.5 0 0 0-7.5 7.5 7.5 7.5 0 0 0 7.5 7.5 7.5 7.5 0 0 0 7.5-7.5 7.5 7.5 0 0 0-7.5-7.5zm9.854 73.893a7.5 7.5 0 0 0-7.5 7.5 7.5 7.5 0 0 0 7.5 7.5 7.5 7.5 0 0 0 7.5-7.5 7.5 7.5 0 0 0-7.5-7.5zm27.093 69.785a7.5 7.5 0 0 0-7.5 7.5 7.5 7.5 0 0 0 7.5 7.5 7.5 7.5 0 0 0 7.5-7.5 7.5 7.5 0 0 0-7.5-7.5zm41.666 58.908a7.5 7.5 0 0 0-7.5 7.5 7.5 7.5 0 0 0 7.5 7.5 7.5 7.5 0 0 0 7.5-7.5 7.5 7.5 0 0 0-7.5-7.5zm58.086 52.135a7.5 7.5 0 0 0-7.5 7.5 7.5 7.5 0 0 0 7.5 7.5 7.5 7.5 0 0 0 7.5-7.5 7.5 7.5 0 0 0-7.5-7.5z" transform="matrix(-1 0 0 1 1300 0)"/></symbol><symbol id="DQ4" preserveAspectRatio="none" viewBox="0 0 1300 2000"><path d="m1025.515 697.647-25.28-20.368C989.952 689.78 980 712.384 980 740c0 3.922.195 7.744.686 11.316zm-91.732 110.09C925.197 788.131 920 765.005 920 740c0-41.103 14.18-77.08 34.055-100.799l-22.996-19.27C906.29 649.49 890 692.155 890 740c0 34.746 8.556 66.77 22.761 93.011m-30.244-193.404c-72.405 20.612-141.721 33.19-208.487 39.26l81.559 169.126-30.274 6.293-97.437-202.308c88.306-4.07 180.998-20.042 280.024-51.314M594.89 860.324 508.073 679.82c-45.302-3.45-89.725-9.772-133.167-18.417-16.41-15.827-34.458-30.224-53.427-42.809 66.752 17.082 134.816 28.6 205.749 32.701l102.104 210.47c-11.04-.031-22.665-.51-34.443-1.442zm287.424 10.67c-110.831 43.705-240.483 69.42-397.607 32.622l-2.707-31.5c160.352 40.144 287.863 12.7 399.987-33.313l10.341 18.76zM-.649 940.649l321.914-322.167c-52.749-13.6-104.258-30.608-155.127-50.2-8.87 7.219-18.128 13.978-28.235 20.645a1309.719 1309.719 0 0 0 126.33 44.505L-.31 897.884m318.977-765.218L310 85l45-5-5-50 44.268-4.919M274.19 195.957 265 150l47.563-8.648m-78.115 111.163L225 210l45.754-9.15m-71.392 101.597L190 265l42.277-9.395m-68.12 96.94L150 310l47.383-4.738m463.18 91.303c4.387-10.108 7.593-19.187 9.437-26.565 6.01-24.04 8.408-58.918 9.425-86.4 3.628 4.784 7.072 10.926 10.391 17.15 24.307 45.579 42.879 96.272 53.035 163.909z" transform="matrix(-1 0 0 1 1300 0)"/></symbol><symbol id="DQ5" preserveAspectRatio="none" viewBox="0 0 1300 2000"><path stroke="#44F" stroke-linecap="round" stroke-linejoin="round" stroke-width="6" fill="none" d="M814.968 934.425c-143.122 31.822-266.357 13.765-371.355-21.994m371.68-8.815c-157.123 36.799-286.775 11.083-397.606-32.622m374.442-191.107-87.077 180.374m-160.64-12.268 81.541-168.908M407.628 857.62C427.946 824.923 440 784.177 440 740c0-54.589-18.405-103.939-48.065-139.335M202.338 1262.69c23.93-244.901 111.057-277.296 205.313-405.126L274.679 697.653M0 923.529l639.634-526.757m338.909 221.77 320.669 320.67M978.886 618.569C880.18 682.947 815 793.909 815 920c0 83.944 28.89 161.184 77.327 222.436m241.635-574.087C911.151 653.7 678.027 690.957 392.098 600.664m233.889 77.986c-66.783-5.853-136.1-18.43-208.504-39.043m507.723 21.675c-43.554 8.766-87.977 15.088-133.481 18.47m370.97-90.4c-41.734 16.473-83.96 31.38-126.9 44.2m-615.883-55.726c264.41 78.944 479.531 46.19 688.846-31.994m-646.678-2.77c234.366 63.528 424.87 35.567 614.925-33.433m-586.32 9.922c215.428 54.101 390.784 28.357 568.548-35.35m-539.58 11.503c197.221 45.288 358.298 21.163 524.187-37.804m-284.954 30.687c93.46-4.626 181.467-25.78 271.814-57.79m-481.636 40.681c52.358 10.79 101.991 16.482 149.863 17.777m73.676 162.077L671.056 861.68m-96.371-7.394 97.62-202.213m66.242.795-100.65 208.489m-31.963-2.793 99.313-205.72m118.846 186.682c-160.525 43.72-283.216 17.466-395.161-28.663M818 872.115c-160.352 40.145-287.863 12.701-399.987-33.312M1300 715.769 797.027 0m195.137 277.857c19.154 191.727 120.843 304.127 244.15 347.624M817.744 964.53c-58.999 12.802-114.945 17.45-167.75 16.067m165.85-36.124c-58.493 12.898-113.776 17.574-165.891 16.177m166.674-6.113c-58.685 12.824-114.245 17.478-166.657 16.092m169.134 3.837c-59.417 12.831-115.84 17.498-169.12 16.12m.024 28.817c68.6 1.797 131.899 13.776 189.706 31.289m-18.904-66.365c-59.965 12.916-116.974 17.622-170.823 16.247m.028-1.148c65.257 1.666 125.873 12.263 181.487 28.001m-181.453 11.923c72.951 1.954 139.695 15.805 200.345 35.65M650.03 1029.37c70.625 1.869 135.534 14.705 194.666 33.3m-194.68-53.257c66.826 1.729 128.708 12.967 185.354 29.531m-12.645-44.8a756.464 756.464 0 0 1-49.427 8.937m-.559-.033a775.133 775.133 0 0 1 55.443 13.072M319.44 751.45c.365-3.707.56-7.53.56-11.451 0-27.616-9.952-50.221-20.043-62.264m66.26 130.001C374.803 788.131 380 765.005 380 740c0-41.103-14.18-77.08-34.055-100.799m41.294 193.81C401.444 806.771 410 774.746 410 740c0-47.846-16.291-90.51-41.059-120.068m-193.768 615.31c13.614-111.338 41.958-181.004 78.509-235.687 35.05-52.438 75.124-89.992 115.574-141.244l-98.838-118.86m-.114.338L0 962.393m234.594 332.2 20.965-13.673C321.664 1237.804 365 1164.735 365 1080c0-47.182-13.333-90.316-36.648-127.134m-72.08 363.406 15.675-10.223C346.203 1257.617 395 1175.074 395 1080c0-56.187-16.956-107.635-46.23-150.684m-49.143 430.312 5.098-3.325C395.28 1297.24 455 1195.75 455 1080c0-74.36-24.612-142.691-66.254-197.867m-170.169 277.76A65 70 0 0 0 280 1090a65 70 0 0 0-17.291-47.542m-58.6-287.51C201.164 739.39 190.729 692.501 170 680c-25.842-15.585-34.723-11.668-62.036-30.683-31.58-21.984-61.133.186-20 25C122.453 695.124 120 690 135 695c-15 35-10 60 10 70m-75-82.424C25.978 666.534 2.1 685.714 60 705c82.883 27.607 70.718-.297 10-22.424h0m-1.724-28.197c-39.536-13.043-58.999 5.446-5.112 24.032 28.255 9.746 45.072 12.574 52.426 11.18m-52.258 16.396c-42.513-16.042-65.571 3.139-9.657 22.424 80.042 27.608 68.294-.297 9.657-22.424h0M53.38 729.79c-38.291-14.166-57.68 5.998-7.409 22.818 71.963 24.077 60.22-3.28 7.409-22.818h0m3.824 46.315c-9.16-9.437-15.743-18.45-17.203-25.648m79.761 74.446c-14.707-9.097-34.53-23.214-50.771-37.604m12.934-25.581c-13.8 28.309-34.27 51.3-14.56 106.336m-12.413 9.653c-12.692-33.117-12.724-58.555-6.767-78.837 4.666-15.888 12.027-28.085 17.971-39.347M140 520c15-55 85 15 30 30 55 15-15 85-30 30-15 55-85-15-30-30-55-15 15-85 30-30h0m-16.158 30A16.158 16.336 0 0 0 140 566.336 16.158 16.336 0 0 0 156.158 550 16.158 16.336 0 0 0 140 533.664 16.158 16.336 0 0 0 123.842 550h0m43.625-49.675c36.29-73.766-91.224-73.766-54.934 0m-22.209 22.208c-73.766-36.29-73.766 91.224 0 54.934m22.21 22.209c-36.29 73.766 91.223 73.766 54.933 0m22.209-22.21c73.766 36.29 73.766-91.223 0-54.933M170 550h45m-5 0a5 5 0 0 0 5 5 5 5 0 0 0 5-5 5 5 0 0 0-5-5 5 5 0 0 0-5 5h0m-70-30v-45m0 5a5 5 0 0 0 5-5 5 5 0 0 0-5-5 5 5 0 0 0-5 5 5 5 0 0 0 5 5h0m-30 70H65m5 0a5 5 0 0 0-5-5 5 5 0 0 0-5 5 5 5 0 0 0 5 5 5 5 0 0 0 5-5h0m70 30v45m0-5a5 5 0 0 0-5 5 5 5 0 0 0 5 5 5 5 0 0 0 5-5 5 5 0 0 0-5-5h0m-11.482-81.482L115 525m-5 0a5 5 0 0 0 5 5 5 5 0 0 0 5-5 5 5 0 0 0-5-5 5 5 0 0 0-5 5h0m18.522 36.479L115 575m0 5a5 5 0 0 0 5-5 5 5 0 0 0-5-5 5 5 0 0 0-5 5 5 5 0 0 0 5 5h0m36.479-41.479L165 525m5 0a5 5 0 0 1-5 5 5 5 0 0 1-5-5 5 5 0 0 1 5-5 5 5 0 0 1 5 5h0m-18.518 36.482L165 575m0 5a5 5 0 0 1-5-5 5 5 0 0 1 5-5 5 5 0 0 1 5 5 5 5 0 0 1-5 5h0m-35.154 73.59-3.916 6.527m-11.885-15.193-3.602 6.005m50.051 23.785C192.223 656.414 227.127 648.402 265 650m-104.617 24.663C206.233 634.375 252.32 605.651 300 655c-39.672 4.959-54.752 44.346-137.923 20.602M80 640c-16.701-23.17-35.506-41.468-65-35 3.665 22.352 25.716 34.307 50 45M639.038.18C515.843 169.414 404.626 279.503 391.982 600.72M657.711 25.467C539.368 186.748 440.2 286.031 423.278 574.873M617.223 231.16c-47.134 70.394-80.466 143.364-96.296 263.205m99.587-212.07a529.266 529.266 0 0 0-10.33 18.456c-24.307 45.579-42.879 96.272-54.72 165.254M1300 586.154 888.108 0M666.481.035C653.63 36.81 610 162.945 610 180c0 20 10 60 10 70s0 80 10 120 60 130 90 130 70.354-34.592 100-30c70.89 10.981 142.669-126.598 130-130 0 0 5.347 10.755 10 10 17.89-2.903 28.811-31.84 34.625-54.087m141.218 56.632c33.673-38.773 92.781-42.233 154.157-42.545-24.698-11.302-55.318-13.788-70-40-19.51 12.84-44.295 11.371-70.358 6.438m32.463 46.173L955.405 0m226.7 322.612h0m67.698-11.416a177.98 177.98 0 0 1-4.395-1.785c-10.374-4.38-21.25-10.633-30.031-20.346-17.087 6.838-35.606 6.886-53.746 4.514M1210 90c-50 50 6.776 124.444-29.752 149.356-50.522 34.455-76.102-27.914-47.612-46.78 26.007-17.22 48.136 19.145 27.364 27.424-13.525 5.39-20 0-20-10m70-120c-56.222 42.374-109.509-27.469-141.655 5.027-36.779 37.179 11.958 74.012 32.409 52.48 22.33-23.512-11.17-52.634-23.5-31.038-8.027 14.062.294 19.991 9.9 16.875M1110 220c-17.04-28.965 18.498-48.181 40-70-27.148 10.568-55.142 33.88-80 10m-40.122-53.906c4.394-39.668 30.887-72.24 53.549-106.041m-65.772 88.566c8.103-33.769 29.144-62.078 47.635-88.7m-83.957 132.747L990 85l-45-5 5-50-44.268-4.919m120.077 170.876L1035 150l-47.563-8.648m78.115 111.163L1075 210l-45.754-9.15m71.392 101.597L1110 265l-42.277-9.395m68.12 96.94L1150 310l-47.383-4.738m33.226 47.283h0m-249.73-225.583C804.918 106.918 764.274 55.283 728.266.038m54.164.03c16.37 23.324 33.163 42.983 55.437 58.05M764.284.084c24.8 36.445 50.753 66.711 92.73 85.516M746.235.072c31.093 46.79 64.663 87.322 126.322 107.456m-243.273 2.953C671.836 83.296 699.378 42.847 724.24.031m-52.707.041c-3.462 5.47-6.958 10.745-10.537 15.817M689.188.125c-12.791 20.952-26.051 39.934-41.923 56.083M706.707.18c-19.567 32.943-40.446 62.822-69.325 85.45M960 265c-10 55 15 45 0 25m-85-90c-32.57-21.833-65.334-43.275-130 0 2.101-1.048-2.388 5.299-.447 3.986C780 180 824.23 168.206 875 200h0m-180-5c-31.44-37.479-60-20-85-10 25-5 60-20 85 15v-5h0m0 0c10 90-20.912 95.608-20 150 0 10 30 5 30 20m35-45c21.322.138 52.198 34.45 10 35-7.172.093-17.261-10.366-22.04-10.045-38.619 2.596.876 5.279 12.04 5.045m35 40v10l-5-5 5-5h0m-105 0v10l5-5-5-5h0m5 5c5 0 25-5 30-5s10 5 15 5 15-5 20-5c0 0-5 0 0 0s20 5 30 5m-30 20c-5 15-40 15-40 0m165-170c-28.544 10.017-49.297-25-75-25-30 0-44.732 33.14-50 30m95-10c-22.444 55-85 0-95 10m-125-25c32.58-22.584 65 15 80 20-15 0-65 35-77.777-13.841M950.82 341.516l.271-.086m-1.795 11.032c2.868-.892 5.742-1.799 8.623-2.72m-68.667 90.961c43.198-9.513 86.258-22.346 130.319-37.862m-38.584-71.279a1528.002 1528.002 0 0 0 15.961-5.576m-28.698 20.405a1436.914 1436.914 0 0 0 32.048-10.983m-55.838 28.985c19.184-5.81 38.61-12.26 58.427-19.293m-64.714 31.584c22.02-6.45 44.295-13.743 67.042-21.798m-74.385 34.288c25.251-7.109 50.758-15.332 76.825-24.544m-85.167 37.182c28.905-7.77 58.04-17.008 87.836-27.52m-97.263 40.29c33.022-8.41 66.216-18.745 100.176-30.715M902.08 427.55c37.73-9.002 75.516-20.526 114.181-34.144M579.33 446.672c32.206 5.737 63.266 9.475 93.492 11.385m-41.863-53.992c4.158.526 8.295 1.015 12.411 1.468m-23.035 7.19a789.15 789.15 0 0 0 28.248 3.382m-38.539 5.228a800.242 800.242 0 0 0 43.868 5.298m-54.382 3.187c20.594 3.274 40.693 5.704 60.397 7.338m-70.413 1.142c26.25 4.426 51.717 7.503 76.587 9.325m423.34 105.14-15.02-46.562m-70.863-66.178 44.98 126.766m-80.302-115.647 37.416 128.877m-77.575-117.716 32.474 129.896m-68.86-121.386 20.68 132.355m-44.38 8.187c-4.337-43.872-6.407-90.011-10.62-134.007m-32.883 139.705-3.83-134.086m-40.245 138.01 3.948-134.22m-47.898 136.18 15.968-131.734M693.75 622.851l26.883-122.894M648.22 620.635l45.255-131.65m-83.503 128.173 50.298-129.937m-96.05 123.74 59.415-127.32M517.526 602.456l73.99-123.316M463.582 589.926l98.807-115.992m491.651-108.183c-1.55 37.591 1.767 78.673 6.764 120.96m-21.894-142.46c-1.211 36.592 2.044 76.388 6.877 117.315m-21.833-138.6c-1.176 32.637 1.242 67.853 5.193 104.168m41.305-38.012c-1.682 37.378 1.517 78.258 6.441 120.375m8.505-99.123c-1.533 36.48 1.531 76.259 6.276 117.242m8.672-95.952c-1.354 34.733 1.41 72.422 5.793 111.27m9.158-89.98c-1.167 32.45 1.218 67.448 5.13 103.542m9.823-82.176c-.975 29.706.99 61.521 4.35 94.338m10.779-72.824c-1.08 26.37.233 54.456 2.839 83.47m12.317-61.925c-1.112 22.583-.414 46.466 1.393 71.143m13.548-49.915c-.87 18.798-.498 38.487.71 58.776m17.706-32.575c-.439 13.78-.247 28.01.42 42.584m14.54-21.282c-.266 9.207-.254 18.612-.01 28.185M1009.001 301.73c-.944 24.246.119 49.931 2.337 76.446m-809 884.514c23.93-244.901 111.057-277.296 205.313-405.126L274.679 697.653m-8.653 435.71 58.091 42.569c8.064 7.699 8.277 20.504.473 28.467-7.803 7.963-20.61 8.008-28.47.101l-48.17-54.161m35.357-140.99 31.076-22.708a20.002 20.002 0 1 1 23.602 32.297l-64.792 39.877m0 0 59.602-27.54a20.004 20.004 0 0 1 5.908-.906c9.998-.022 18.477 7.342 19.855 17.245 1.378 9.903-4.768 19.302-14.392 22.011l-64.382 14.675m0 0 61.17-4.64c11.113.667 19.543 10.282 18.751 21.388-.791 11.106-10.5 19.428-21.596 18.512l-60.53-10.633m0 0 61.284 15.983c10.332 4.216 15.216 16.071 10.852 26.342-4.364 10.27-16.288 14.984-26.494 10.473l-57.195-28.361m-18.075 16.975 46.82 73.927c4.814 10.067.459 22.127-9.678 26.796-10.136 4.668-22.132.139-26.653-10.064l-29.287-82.678m0 0 25.173 104.776c1.469 11.067-6.407 21.195-17.496 22.497-11.088 1.302-21.096-6.726-22.23-17.833l-6.325-53.888M155 955c-10 35 35 60 45-10 10 70 55 45 45 10 35 10 60-35-10-45 70-10 45-55 10-45 10-35-35-60-45 10-10-70-55-45-45-10-35-10-60 35 10 45-70 10-45 55-10 45h0M29.99 1091.44c10-70 55-45 45-10 35-10 60 35-10 45m44.514-27.444c19.862-6.953 37.332-16.293 51.414-29.111 25.365-23.089 41.372-57.883 41.07-114.582m18.137 32.134c-5.204 43.733-21.51 75.18-45.744 97.239-27.69 25.205-64.318 37.791-104.245 45.159m-53.774-53.3c6.904-37.404 17.927-72.709 39.093-101.523 17.397-23.684 41.763-42.338 75.113-53.48m-7.7 24.01c-22.292 9.905-38.657 24.104-51.296 41.31-14.532 19.783-24.032 44.131-30.678 71.048m322.711-192.512a129.476 129.476 0 0 1-9.224 9.288c-24.942 22.704-57.134 35.168-92.458 42.803m13.309-23.995c25.802-7.274 48.32-17.792 65.686-33.6 5.611-5.107 10.765-10.788 15.385-17.151m-77.568-93.263c-10.703 7.867-19.6 17.086-27.163 27.382-11.32 15.412-19.588 33.594-25.831 53.604M197.28 861.7c6.313-32.318 15.93-62.91 32.795-88.9M270 825a15 15 0 0 0 15 15 15 15 0 0 0 15-15 15 15 0 0 0-15-15 15 15 0 0 0-15 15h0m-160 195a15 15 0 0 0 15 15 15 15 0 0 0 15-15 15 15 0 0 0-15-15 15 15 0 0 0-15 15h0m30 130a15 15 0 0 0 15 15 15 15 0 0 0 15-15 15 15 0 0 0-15-15 15 15 0 0 0-15 15h0m-70.86-24.341 3.262 3.712m-40.808-46.453 37.547 42.74m-50.989-58.04 13.442 15.3m-31.595-35.964 18.153 20.664m71.037 58.135 87.43 99.522M0 1024.228l22.258 25.336m83.073 71.836 74.117 84.37M43 1050.444l2.124 2.418M.001 1001.5l27.22 30.986m134.827 130.747 20.608 23.459m-61.914-70.477 22.05 25.1M75.665 1064.9l13.608 15.49m-41.116-46.803 11.84 13.478M0 978.772l33.032 37.6m136.945 133.16 16.314 18.57m-50.954-58.002 22.05 25.1M54.174 1017.71l67.278 76.585M3.236 959.728l36.49 41.537m109.318 101.71 41.304 47.018m-129.06-146.91 74.222 84.486M14.82 950.187l32.536 37.035m114.437 107.538 33.009 37.575M69.569 989.78l78.938 89.857M26.406 940.647l29.59 33.683m117.526 111.053 26.269 29.903m-70.98-80.796 31.514 35.871m-81.28-92.522 32.072 36.508m-73.126-83.24 27.736 31.572m118.388 112.035 20.95 23.849m-65.587-74.66 31.34 35.674M89.522 967.04l33.481 38.112m-73.429-83.586 26.857 30.572m117.056 110.52 17.55 19.976M101.28 957.695l78.614 89.488M61.16 912.025l27.031 30.77m113.467 106.434 15.566 17.719M114.266 949.749l73.251 83.383M72.745 902.485l28.3 32.213m107.528 99.675 15.528 17.675m-55.428-63.095 24.923 28.37m-53.992-61.46 14.944 17.012M84.33 892.944l30.549 34.775m99.296 90.303 17.134 19.503m-46.94-53.432 13.686 15.578m-68.36-77.814.192.217m-33.972-38.67 33.78 38.453m88.495 78.007 20.74 23.61m-45.983-52.344 7.888 8.978M107.5 873.864l36.164 41.166m85.29 74.36 18.155 20.666m-45.224-51.48 1.266 1.44m-4.923-5.602 3.657 4.162m-43.82-49.881 1.966 2.238m-40.947-46.61 6.16 7.011m116.45 109.829 13.84 15.756M130.67 854.783l8.309 9.457m107.31 99.425 18.12 20.627m-122.154-139.05 11.49 13.08m105.783 97.686 14.063 16.008M153.84 835.702l3.764 4.285m116.218 109.566 9.15 10.416m-44.474-50.627 1.384 1.576m-42.156-47.987 3.743 4.26m-36.045-41.03 4.064 4.626m108.88 101.212 14.25 16.221m-23.579-26.84 9.329 10.62m-13.392-15.245 4.063 4.625m-92.03-104.76 24.24 27.594m80.042 68.385 21.139 24.063M188.593 807.08l17.25 19.637m91.07 80.938 15.41 17.541m-33.638-38.29 3.725 4.24m-36.559-41.616 12.538 14.272m-31.7-36.084 2.544 2.895m-29.055-33.073 11.272 12.83m100.32 91.47 10.515 11.968m-89.707-102.115 65.154 74.166M211.764 788l6.13 6.98M325.66 894.92l6.587 7.498m-92.781-105.614 72.596 82.637M223.348 778.46l1.972 2.244m113.29 106.234 3.555 4.045m-47.731-54.333 30.882 35.154m-77.883-88.656 27.236 31.003m75.91 63.683 1.411 1.606m-53.44-60.832 38.858 44.232m-44.357-50.492 5.5 6.26m-42.108-47.93 36.608 41.67m68.435 55.174.148.168m-94.9-108.027 81.545 92.824m687.458-219.175 264.262 264.262"/></symbol><symbol id="DQ6" preserveAspectRatio="none" viewBox="0 0 1300 2000"><g transform="matrix(-1 0 0 1 1300 0)" stroke="#44F" stroke-linecap="round" stroke-linejoin="round"><path stroke-width="3" fill="none" d="M1200 695c4.412 6.183 6.949 12.697 5 20m-.665 4.982c4.412 6.184 6.95 12.697 5 20m6.832 2.981c4.412 6.184 6.949 12.697 5 20M1195 650c1.03 15.056 40.209.06 35-5M550 455c15.323-7.56 30.583-14.284 45-10m-50-175c-8.282 10.548-23.954 12.98-40 15m140-10c16.677 2.2 19.875-1.846 25-5m-225-45c25 0 48.602-42.4 90 0m68.006 3.103C615 225 647.5 177.5 685 220m-157.484 4.238c1.583 3.945 2.484 8.481 2.484 13.307 0 15.213-8.954 27.545-20 27.545s-20-12.332-20-27.545c0-4.515.789-8.776 2.187-12.537m181.449-5.028c.88 3.106 1.364 6.485 1.364 10.02 0 15.213-8.954 27.545-20 27.545S635 245.213 635 230c0-1.304.066-2.587.193-3.843m138.92 362.787a1092.016 1092.016 0 0 0 51.246-11.594M602.93 608.195a938.738 938.738 0 0 0 43.732-1.988m-127.554.058a932.542 932.542 0 0 0 42.558 1.925m-128.37-11.69a978.48 978.48 0 0 0 42.62 5.826M342.999 578a1094.748 1094.748 0 0 0 46.89 10.631M256.4 552.918c13.97 4.581 27.98 8.93 42.046 13.025m470.232 13.898a1079.943 1079.943 0 0 0 49.442-10.993m-217.342 29.457a926.35 926.35 0 0 0 42.549-1.842M518.82 596.3a920.078 920.078 0 0 0 41.648 1.934M434.16 586.58a966.447 966.447 0 0 0 42.05 5.79m-130.791-24.037a1084.322 1084.322 0 0 0 46.009 10.46m-131.68-35.295a1307.578 1307.578 0 0 0 41.486 12.86m53.863-26.69a1148.614 1148.614 0 0 1-42.72-11.65m124.801 28.8a969.172 969.172 0 0 1-39.594-7.38m120.089 16.996a886.685 886.685 0 0 1-40.32-3.9m114.84 6.181a867.531 867.531 0 0 1-36.508-.317M746.96 543.32a970.937 970.937 0 0 1-39.732 6.474m28.687-24.63a991.003 991.003 0 0 0 38.597-7.655M587.826 539.1a850.524 850.524 0 0 0 35.439-1.031m-106.208-1.358a846.283 846.283 0 0 0 36.19 1.965M438.61 527.16a894.329 894.329 0 0 0 39.286 5.68M359.87 510.566A1014.409 1014.409 0 0 0 400.62 520m-120.884-32.874a1251.577 1251.577 0 0 0 38.134 11.924m51.683-27.175a1084.702 1084.702 0 0 1-40.539-11.187m112.76 26.664a899.822 899.822 0 0 1-34.989-6.753m109.11 16.162c-12.36-1-24.635-2.28-36.844-3.829m92.97 6.382a793.873 793.873 0 0 1-23.6-.59m165.439-10.357a889.26 889.26 0 0 1-33.226 4.732m82.617 77.629c15.693-3.05 31.569-6.512 47.643-10.404m-212.267 28.09a913.916 913.916 0 0 0 41.367-1.698m-121.462-.38a907.632 907.632 0 0 0 40.738 1.944M435 576.656a954.488 954.488 0 0 0 41.495 5.758M347.84 558.667c14.97 3.75 30.007 7.186 45.128 10.288m-129.876-34.879a1302.175 1302.175 0 0 0 40.926 12.697m48.66-7.44A1157.118 1157.118 0 0 1 309.59 527.6m86.454 21.675a1053.188 1053.188 0 0 1-43.368-9.943m83.774 17.43a980.192 980.192 0 0 1-40.406-7.487M517.959 566.4a898.942 898.942 0 0 1-40.888-3.906m117.265 6.122c-12.586.181-25.07.092-37.458-.257M752.42 552.46a983.56 983.56 0 0 1-40.827 6.781m18.794-43.251a978.177 978.177 0 0 0 36.725-7.111m-181.458 20.29a838.285 838.285 0 0 0 34.243-.906m-103.13-1.538a834.046 834.046 0 0 0 35.272 1.966m-112.713-11.494a882.638 882.638 0 0 0 38.858 5.668m-115.893-21.971a1004.27 1004.27 0 0 0 39.871 9.257M283.079 477.7a1246.943 1246.943 0 0 0 37.577 11.758m-47.525 16.355a1457.958 1457.958 0 0 1-37.97-13.056m57.947-43.33a1397.452 1397.452 0 0 1-27.986-9.571m4.661 75.377A1464.405 1464.405 0 0 1 229.2 501.24m60.566-42.386a1399.617 1399.617 0 0 1-28.999-9.93m106.367 32.624a1092.728 1092.728 0 0 1-40.905-11.27m114.704 27.019a910.626 910.626 0 0 1-35.688-6.847m110.942 16.3a825.836 825.836 0 0 1-37.423-3.84m102.56 6.386a806.24 806.24 0 0 1-31.697-.58m134.815 94.136a987.715 987.715 0 0 0 44.61-5.886m-48.33-3.73a975.771 975.771 0 0 0 43.957-5.69m-58.862-32.83a895.365 895.365 0 0 1-35.787 2.712m28.393-21.835a897.388 897.388 0 0 0 39.914-4.53m-54.902-34.212a817.781 817.781 0 0 1-33.61 1.947m67.175 84.817a963.68 963.68 0 0 0 43.312-5.495m-50.764-13.767a908.096 908.096 0 0 1-36.199 2.843m21.332-41.277a885.3 885.3 0 0 0 39.222-4.332m-46.717-15.04a830.573 830.573 0 0 1-34.008 2.081m106.18-11.038a902.132 902.132 0 0 1-34.308 5.014m133.616 24.86c-9.882 2.544-19.68 4.92-29.4 7.136m-28.6-55.02a978.337 978.337 0 0 1-15.643 3.206m83.316 52.489a1104.58 1104.58 0 0 1-31.853 7.918m-25.903-55.537a995.447 995.447 0 0 1-18.217 3.86m-552.199 44.868c4.75 1.497 9.505 2.966 14.266 4.407m-6.618-12.48c3.225 1.003 6.452 1.995 9.682 2.973m-2.672-11.258c1.91.589 3.823 1.173 5.736 1.753M0 686.133l164.641-234.298M.001 651.346 145 445M0 616.559l125.61-178.751m696.013-37.814c10.75 42.962 18.64 91.657 23.212 148.629m-32.09-28.447-3.93-29.74c-5.164-39.086-12.284-73.743-21.15-105.17m104.848 202.685-.818-13.955c-3.354-57.247-9.988-107.304-19.374-151.998m-33.663-14.634c10.513 44.62 18.077 95.134 22.168 153.983m-64.918-54.077-1.965-14.872c-5.748-43.519-13.867-81.212-24.117-114.957m-36.631-15.904c12.135 34.014 21.74 72.391 28.672 118.272m42.525-87.355c10.975 41.17 19.186 87.859 24.237 142.696"/><use xlink:href="#SDQ" height="100" transform="matrix(1 0 0 .877 600 956.15)" stroke-width="72"/><use xlink:href="#SDQ" height="100" transform="matrix(1 0 0 .877 530 961.15)" stroke-width="72"/><use xlink:href="#SDQ" height="100" transform="matrix(1 0 0 .877 460 966.15)" stroke-width="72"/></g></symbol><rect width="211" height="328" x="-105.5" y="-164" rx="12" ry="12" fill="#fff" stroke="#000"/><use width="144.8" height="253.8" x="-72.4" y="-126.9" xlink:href="#DQ1"/><use transform="rotate(180)" width="144.8" height="253.8" x="-72.4" y="-126.9" xlink:href="#DQ1"/><use width="144.8" height="253.8" x="-72.4" y="-126.9" xlink:href="#DQ2"/><use transform="rotate(180)" width="144.8" height="253.8" x="-72.4" y="-126.9" xlink:href="#DQ2"/><use width="144.8" height="253.8" x="-72.4" y="-126.9" xlink:href="#DQ3"/><use transform="rotate(180)" width="144.8" height="253.8" x="-72.4" y="-126.9" xlink:href="#DQ3"/><use width="144.8" height="253.8" x="-72.4" y="-126.9" xlink:href="#DQ4"/><use transform="rotate(180)" width="144.8" height="253.8" x="-72.4" y="-126.9" xlink:href="#DQ4"/><use width="144.8" height="253.8" x="-72.4" y="-126.9" xlink:href="#DQ5"/><use transform="rotate(180)" width="144.8" height="253.8" x="-72.4" y="-126.9" xlink:href="#DQ5"/><use width="144.8" height="253.8" x="-72.4" y="-126.9" xlink:href="#DQ6"/><use transform="rotate(180)" width="144.8" height="253.8" x="-72.4" y="-126.9" xlink:href="#DQ6"/><use xlink:href="#VDQ" height="32" x="-100.4" y="-152.5"/><use xlink:href="#SDQ" height="26.769" x="-97.784" y="-115.5"/><use xlink:href="#SDQ" height="48.68" x="-78.514" y="-125.86"/><g transform="rotate(180)"><use xlink:href="#VDQ" height="32" x="-100.4" y="-152.5"/><use xlink:href="#SDQ" height="26.769" x="-97.784" y="-115.5"/><use xlink:href="#SDQ" height="48.68" x="-78.514" y="-125.86"/></g><use xlink:href="#XDQ" stroke="#44F" fill="none"/></svg>