<svg xmlns="http://www.w3.org/2000/svg" xmlns:xlink="http://www.w3.org/1999/xlink" class="card" height="336" preserveAspectRatio="none" viewBox="-106 -164.5 212 329" width="216"><symbol id="SHQ" viewBox="-600 -600 1200 1200" preserveAspectRatio="xMinYMid"><path d="M0-300c0-100 100-200 200-200s200 100 200 250C400 0 0 400 0 500 0 400-400 0-400-250c0-150 100-250 200-250S0-400 0-300Z" fill="red"/></symbol><symbol id="VHQ" viewBox="-500 -500 1000 1000" preserveAspectRatio="xMinYMid"><path d="M-260 100c300 0 220 360 520 360M-175 0v-285a175 175 0 0 1 350 0v570a175 175 0 0 1-350 0Z" stroke="red" stroke-width="80" stroke-linecap="square" stroke-miterlimit="1.5" fill="none"/></symbol><rect width="211" height="328" x="-105.5" y="-164" rx="12" ry="12" fill="#fff" stroke="#000"/><use xlink:href="#VHQ" height="108" x="-54" y="-54"/><use xlink:href="#VHQ" height="50" x="-104" y="-152.5"/><use xlink:href="#SHQ" height="41.827" x="-99.913" y="-97.5"/><g transform="rotate(180)"><use xlink:href="#VHQ" height="50" x="-104" y="-152.5"/><use xlink:href="#SHQ" height="41.827" x="-99.913" y="-97.5"/></g></svg>