<svg xmlns="http://www.w3.org/2000/svg" xmlns:xlink="http://www.w3.org/1999/xlink" class="card" height="336" preserveAspectRatio="none" viewBox="-106 -164.5 212 329" width="216"><symbol id="SCT" viewBox="-600 -600 1200 1200" preserveAspectRatio="xMinYMid"><path d="M30 150c5 235 55 250 100 350h-260c45-100 95-115 100-350a10 10 0 0 0-20 0 210 210 0 1 1-74-201 10 10 0 0 0 14-14 230 230 0 1 1 220 0 10 10 0 0 0 14 14 210 210 0 1 1-74 201 10 10 0 0 0-20 0Z"/></symbol><symbol id="VCT" viewBox="-500 -500 1000 1000" preserveAspectRatio="xMinYMid"><path d="M-260 430v-860M-50 0v-310a150 150 0 0 1 300 0v620a150 150 0 0 1-300 0Z" stroke="#000" stroke-width="80" stroke-linecap="square" stroke-miterlimit="1.5" fill="none"/></symbol><rect width="211" height="328" x="-105.5" y="-164" rx="12" ry="12" fill="#fff" stroke="#000"/><use xlink:href="#VCT" height="32" x="-100.4" y="-152.5"/><use xlink:href="#SCT" height="26.769" x="-97.784" y="-115.5"/><use xlink:href="#SCT" height="54" x="-72.167" y="-130.735"/><use xlink:href="#SCT" height="54" x="18.167" y="-130.735"/><use xlink:href="#SCT" height="54" x="-72.167" y="-61.578"/><use xlink:href="#SCT" height="54" x="18.167" y="-61.578"/><use xlink:href="#SCT" height="54" x="-27" y="-96.156"/><g transform="rotate(180)"><use xlink:href="#VCT" height="32" x="-100.4" y="-152.5"/><use xlink:href="#SCT" height="26.769" x="-97.784" y="-115.5"/><use xlink:href="#SCT" height="54" x="-72.167" y="-130.735"/><use xlink:href="#SCT" height="54" x="18.167" y="-130.735"/><use xlink:href="#SCT" height="54" x="-72.167" y="-61.578"/><use xlink:href="#SCT" height="54" x="18.167" y="-61.578"/><use xlink:href="#SCT" height="54" x="-27" y="-96.156"/></g></svg>