<svg xmlns="http://www.w3.org/2000/svg" xmlns:xlink="http://www.w3.org/1999/xlink" class="card" height="336" preserveAspectRatio="none" viewBox="-106 -164.5 212 329" width="216"><symbol id="SDT" viewBox="-600 -600 1200 1200" preserveAspectRatio="xMinYMid"><path d="M-400 0C-350 0 0-450 0-500 0-450 350 0 400 0 350 0 0 450 0 500 0 450-350 0-400 0Z" fill="red"/></symbol><symbol id="VDT" viewBox="-500 -500 1000 1000" preserveAspectRatio="xMinYMid"><path d="M-260 430v-860M-50 0v-310a150 150 0 0 1 300 0v620a150 150 0 0 1-300 0Z" stroke="red" stroke-width="80" stroke-linecap="square" stroke-miterlimit="1.5" fill="none"/></symbol><rect width="211" height="328" x="-105.5" y="-164" rx="12" ry="12" fill="#fff" stroke="#000"/><use xlink:href="#VDT" height="32" x="-100.4" y="-152.5"/><use xlink:href="#SDT" height="26.769" x="-97.784" y="-115.5"/><use xlink:href="#SDT" height="54" x="-72.167" y="-130.667"/><use xlink:href="#SDT" height="54" x="18.167" y="-130.667"/><use xlink:href="#SDT" height="54" x="-72.167" y="-61.555"/><use xlink:href="#SDT" height="54" x="18.167" y="-61.555"/><use xlink:href="#SDT" height="54" x="-27" y="-96.111"/><g transform="rotate(180)"><use xlink:href="#VDT" height="32" x="-100.4" y="-152.5"/><use xlink:href="#SDT" height="26.769" x="-97.784" y="-115.5"/><use xlink:href="#SDT" height="54" x="-72.167" y="-130.667"/><use xlink:href="#SDT" height="54" x="18.167" y="-130.667"/><use xlink:href="#SDT" height="54" x="-72.167" y="-61.555"/><use xlink:href="#SDT" height="54" x="18.167" y="-61.555"/><use xlink:href="#SDT" height="54" x="-27" y="-96.111"/></g></svg>